<?xml version="1.0" encoding="utf-8"?>
<svg version="1.1" xmlns:xlink="http://www.w3.org/1999/xlink" width="19px" height="19px" xmlns="http://www.w3.org/2000/svg">
  <g transform="matrix(1 0 0 1 -360 -147 )">
    <path d="M 369.5 147  C 374.82 147  379 151.18  379 156.5  C 379 161.82  374.82 166  369.5 166  C 364.18 166  360 161.82  360 156.5  C 360 151.18  364.18 147  369.5 147  Z " fill-rule="nonzero" fill="#ffffff" stroke="none" />
    <path d="M 369.5 147.5  C 374.54 147.5  378.5 151.46  378.5 156.5  C 378.5 161.54  374.54 165.5  369.5 165.5  C 364.46 165.5  360.5 161.54  360.5 156.5  C 360.5 151.46  364.46 147.5  369.5 147.5  Z " stroke-width="1" stroke="#ffffff" fill="none" />
  </g>
</svg>