<?xml version="1.0" encoding="utf-8"?>
<svg version="1.1" xmlns:xlink="http://www.w3.org/1999/xlink" width="19px" height="19px" xmlns="http://www.w3.org/2000/svg">
  <g transform="matrix(1 0 0 1 -275 -56 )">
    <path d="M 3.5625 0  L 15.4375 0  C 16.418836805555557 0  17.257921006944446 0.34841579861110994  17.954752604166664 1.045247395833334  C 18.65158420138889 1.742078993055554  19 2.581163194444442  19 3.5625  L 19 15.4375  C 19 16.418836805555554  18.65158420138889 17.257921006944446  17.954752604166664 17.954752604166664  C 17.257921006944446 18.65158420138889  16.418836805555557 19  15.4375 19  L 13.111979166666666 19  L 13.111979166666666 11.639973958333332  L 15.573567708333334 11.639973958333332  L 15.944661458333334 8.770182291666666  L 13.111979166666666 8.770182291666666  L 13.111979166666666 6.939453125  C 13.111979166666666 6.477647569444442  13.208875868055559 6.131293402777776  13.402669270833334 5.900390625  C 13.596462673611112 5.669487847222222  13.973741319444446 5.554036458333334  14.534505208333334 5.554036458333334  L 16.043619791666664 5.541666666666666  L 16.043619791666664 2.981119791666666  C 15.524088541666666 2.906901041666666  14.790147569444446 2.869791666666666  13.841796875 2.869791666666666  C 12.720269097222225 2.869791666666666  11.82345920138889 3.199652777777776  11.1513671875 3.859375  C 10.479275173611112 4.519097222222222  10.143229166666666 5.45095486111111  10.143229166666666 6.654947916666666  L 10.143229166666666 8.770182291666666  L 7.669270833333333 8.770182291666666  L 7.669270833333333 11.639973958333332  L 10.143229166666666 11.639973958333332  L 10.143229166666666 19  L 3.5625 19  C 2.5811631944444446 19  1.7420789930555558 18.65158420138889  1.0452473958333335 17.954752604166664  C 0.34841579861111105 17.257921006944446  0 16.418836805555554  0 15.4375  L 0 3.5625  C 0 2.581163194444442  0.34841579861111105 1.742078993055554  1.0452473958333335 1.045247395833334  C 1.7420789930555558 0.34841579861110994  2.5811631944444446 0  3.5625 0  Z " fill-rule="nonzero" fill="#999999" stroke="none" transform="matrix(1 0 0 1 275 56 )" />
  </g>
</svg>