<?xml version="1.0" encoding="utf-8"?>
<svg version="1.1" xmlns:xlink="http://www.w3.org/1999/xlink" width="19px" height="19px" xmlns="http://www.w3.org/2000/svg">
  <g transform="matrix(1 0 0 1 -307 -56 )">
    <path d="M 11.738932291666666 11.738932291666668  C 12.357421875 11.120442708333332  12.666666666666666 10.374131944444445  12.666666666666666 9.5  C 12.666666666666666 8.625868055555554  12.357421875 7.879557291666666  11.738932291666666 7.261067708333334  C 11.120442708333334 6.642578125  10.374131944444446 6.333333333333334  9.5 6.333333333333334  C 8.625868055555555 6.333333333333334  7.879557291666667 6.642578125  7.261067708333333 7.261067708333334  C 6.642578125 7.879557291666666  6.333333333333333 8.625868055555554  6.333333333333333 9.5  C 6.333333333333333 10.374131944444445  6.642578125 11.120442708333332  7.261067708333333 11.738932291666668  C 7.879557291666667 12.357421875  8.625868055555555 12.666666666666668  9.5 12.666666666666668  C 10.374131944444446 12.666666666666668  11.120442708333334 12.357421875  11.738932291666666 11.738932291666668  Z M 12.951171875 6.048828125  C 13.899522569444446 6.997178819444442  14.373697916666666 8.147569444444441  14.373697916666666 9.5  C 14.373697916666666 10.852430555555555  13.899522569444446 12.002821180555555  12.951171875 12.951171875  C 12.002821180555555 13.899522569444445  10.852430555555555 14.373697916666666  9.5 14.373697916666666  C 8.147569444444445 14.373697916666666  6.997178819444445 13.899522569444445  6.048828125 12.951171875  C 5.100477430555556 12.002821180555555  4.626302083333334 10.852430555555555  4.626302083333334 9.5  C 4.626302083333334 8.147569444444441  5.100477430555556 6.997178819444442  6.048828125 6.048828125  C 6.997178819444445 5.100477430555554  8.147569444444445 4.626302083333334  9.5 4.626302083333334  C 10.852430555555555 4.626302083333334  12.002821180555555 5.100477430555554  12.951171875 6.048828125  Z M 15.375651041666666 3.624348958333334  C 15.598307291666666 3.847005208333334  15.709635416666666 4.11501736111111  15.709635416666666 4.428385416666666  C 15.709635416666666 4.741753472222222  15.598307291666666 5.009765625  15.375651041666666 5.232421875  C 15.152994791666666 5.455078125  14.88498263888889 5.56640625  14.571614583333334 5.56640625  C 14.258246527777779 5.56640625  13.990234375 5.455078125  13.767578125 5.232421875  C 13.544921875 5.009765625  13.43359375 4.741753472222222  13.43359375 4.428385416666666  C 13.43359375 4.11501736111111  13.544921875 3.847005208333334  13.767578125 3.624348958333334  C 13.990234375 3.401692708333334  14.258246527777779 3.290364583333334  14.571614583333334 3.290364583333334  C 14.88498263888889 3.290364583333334  15.152994791666666 3.401692708333334  15.375651041666666 3.624348958333334  Z M 10.4462890625 1.700846354166666  C 9.873155381944446 1.704969618055554  9.557725694444446 1.70703125  9.5 1.70703125  C 9.442274305555555 1.70703125  9.126844618055555 1.704969618055554  8.5537109375 1.700846354166666  C 7.980577256944445 1.696723090277776  7.545572916666667 1.696723090277776  7.248697916666667 1.700846354166666  C 6.951822916666667 1.704969618055554  6.553927951388889 1.7173394097222219  6.055013020833333 1.737955729166666  C 5.5560980902777795 1.7585720486111098  5.131401909722223 1.7998046875  4.780924479166667 1.861653645833334  C 4.430447048611112 1.923502604166666  4.135633680555556 1.9997829861111098  3.896484375 2.090494791666666  C 3.4841579861111116 2.255425347222222  3.121310763888889 2.494574652777776  2.8079427083333335 2.807942708333334  C 2.494574652777778 3.121310763888888  2.2554253472222223 3.48415798611111  2.090494791666667 3.896484375  C 1.9997829861111112 4.135633680555554  1.9235026041666667 4.43044704861111  1.8616536458333333 4.780924479166666  C 1.7998046875 5.131401909722222  1.7585720486111112 5.556098090277776  1.7379557291666667 6.055013020833334  C 1.7173394097222223 6.5539279513888875  1.7049696180555558 6.951822916666666  1.7008463541666667 7.248697916666666  C 1.6967230902777781 7.545572916666666  1.6967230902777781 7.980577256944442  1.7008463541666667 8.5537109375  C 1.7049696180555558 9.126844618055554  1.70703125 9.442274305555554  1.70703125 9.5  C 1.70703125 9.557725694444445  1.7049696180555558 9.873155381944445  1.7008463541666667 10.4462890625  C 1.6967230902777781 11.019422743055555  1.6967230902777781 11.454427083333332  1.7008463541666667 11.751302083333332  C 1.7049696180555558 12.048177083333332  1.7173394097222223 12.446072048611107  1.7379557291666667 12.944986979166668  C 1.7585720486111112 13.44390190972222  1.7998046875 13.868598090277775  1.8616536458333333 14.219075520833332  C 1.9235026041666667 14.569552951388888  1.9997829861111112 14.864366319444441  2.090494791666667 15.103515625  C 2.2554253472222223 15.515842013888888  2.494574652777778 15.878689236111112  2.8079427083333335 16.192057291666664  C 3.121310763888889 16.50542534722222  3.4841579861111116 16.74457465277778  3.896484375 16.909505208333336  C 4.135633680555556 17.00021701388889  4.430447048611112 17.076497395833336  4.780924479166667 17.138346354166664  C 5.131401909722223 17.2001953125  5.5560980902777795 17.24142795138889  6.055013020833333 17.262044270833336  C 6.553927951388889 17.28266059027778  6.951822916666667 17.295030381944446  7.248697916666667 17.299153645833336  C 7.545572916666667 17.30327690972222  7.980577256944445 17.30327690972222  8.5537109375 17.299153645833336  C 9.126844618055555 17.295030381944446  9.442274305555555 17.29296875  9.5 17.29296875  C 9.557725694444446 17.29296875  9.873155381944446 17.295030381944446  10.4462890625 17.299153645833336  C 11.019422743055555 17.30327690972222  11.454427083333334 17.30327690972222  11.751302083333334 17.299153645833336  C 12.048177083333334 17.295030381944446  12.446072048611112 17.28266059027778  12.944986979166666 17.262044270833336  C 13.443901909722225 17.24142795138889  13.868598090277779 17.2001953125  14.219075520833334 17.138346354166664  C 14.56955295138889 17.076497395833336  14.864366319444446 17.00021701388889  15.103515625 16.909505208333336  C 15.51584201388889 16.74457465277778  15.878689236111112 16.50542534722222  16.192057291666664 16.192057291666664  C 16.505425347222225 15.878689236111112  16.74457465277778 15.515842013888888  16.909505208333336 15.103515625  C 17.00021701388889 14.864366319444441  17.076497395833336 14.569552951388888  17.138346354166664 14.219075520833332  C 17.2001953125 13.868598090277775  17.24142795138889 13.44390190972222  17.262044270833336 12.944986979166668  C 17.28266059027778 12.446072048611107  17.295030381944446 12.048177083333332  17.299153645833336 11.751302083333332  C 17.303276909722225 11.454427083333332  17.303276909722225 11.019422743055555  17.299153645833336 10.4462890625  C 17.295030381944446 9.873155381944445  17.29296875 9.557725694444445  17.29296875 9.5  C 17.29296875 9.442274305555554  17.295030381944446 9.126844618055554  17.299153645833336 8.5537109375  C 17.303276909722225 7.980577256944442  17.303276909722225 7.545572916666666  17.299153645833336 7.248697916666666  C 17.295030381944446 6.951822916666666  17.28266059027778 6.5539279513888875  17.262044270833336 6.055013020833334  C 17.24142795138889 5.556098090277776  17.2001953125 5.131401909722222  17.138346354166664 4.780924479166666  C 17.076497395833336 4.43044704861111  17.00021701388889 4.135633680555554  16.909505208333336 3.896484375  C 16.74457465277778 3.48415798611111  16.505425347222225 3.121310763888888  16.192057291666664 2.807942708333334  C 15.878689236111112 2.494574652777776  15.51584201388889 2.255425347222222  15.103515625 2.090494791666666  C 14.864366319444446 1.9997829861111098  14.56955295138889 1.923502604166666  14.219075520833334 1.861653645833334  C 13.868598090277779 1.7998046875  13.443901909722225 1.7585720486111098  12.944986979166666 1.737955729166666  C 12.446072048611112 1.7173394097222219  12.048177083333334 1.704969618055554  11.751302083333334 1.700846354166666  C 11.454427083333334 1.696723090277776  11.019422743055555 1.696723090277776  10.4462890625 1.700846354166666  Z M 18.938151041666664 5.578776041666666  C 18.979383680555554 6.30447048611111  19 7.6115451388888875  19 9.5  C 19 11.388454861111112  18.979383680555554 12.695529513888888  18.938151041666664 13.421223958333332  C 18.85568576388889 15.136501736111112  18.344401041666664 16.464192708333336  17.404296875 17.404296875  C 16.464192708333336 18.344401041666664  15.136501736111112 18.85568576388889  13.421223958333334 18.938151041666664  C 12.69552951388889 18.979383680555554  11.388454861111112 19  9.5 19  C 7.611545138888889 19  6.304470486111111 18.979383680555554  5.578776041666667 18.938151041666664  C 3.8634982638888897 18.85568576388889  2.535807291666667 18.344401041666664  1.595703125 17.404296875  C 0.6555989583333334 16.464192708333336  0.14431423611111113 15.136501736111112  0.061848958333333336 13.421223958333332  C 0.02061631944444444 12.695529513888888  0 11.388454861111112  0 9.5  C 0 7.6115451388888875  0.02061631944444444 6.30447048611111  0.061848958333333336 5.578776041666666  C 0.14431423611111113 3.863498263888888  0.6555989583333334 2.535807291666666  1.595703125 1.595703125  C 2.535807291666667 0.655598958333334  3.8634982638888897 0.14431423611110994  5.578776041666667 0.061848958333334036  C 6.304470486111111 0.020616319444441866  7.611545138888889 0  9.5 0  C 11.388454861111112 0  12.69552951388889 0.020616319444441866  13.421223958333334 0.061848958333334036  C 15.136501736111112 0.14431423611110994  16.464192708333336 0.655598958333334  17.404296875 1.595703125  C 18.344401041666664 2.535807291666666  18.85568576388889 3.863498263888888  18.938151041666664 5.578776041666666  Z " fill-rule="nonzero" fill="#999999" stroke="none" transform="matrix(1 0 0 1 307 56 )" />
  </g>
</svg>