<?xml version="1.0" encoding="utf-8"?>
<svg version="1.1" xmlns:xlink="http://www.w3.org/1999/xlink" width="13px" height="7px" xmlns="http://www.w3.org/2000/svg">
  <g transform="matrix(1 0 0 1 -569 -78 )">
    <path d="M 12.7587890625 5.675347222222221  C 12.919596354166668 5.829282407407405  13 6.011574074074073  13 6.222222222222221  C 13 6.43287037037037  12.919596354166668 6.615162037037036  12.7587890625 6.769097222222221  C 12.597981770833334 6.923032407407408  12.407552083333334 7  12.1875 7  L 0.8125 7  C 0.5924479166666667 7  0.4020182291666667 6.923032407407408  0.2412109375 6.769097222222221  C 0.08040364583333333 6.615162037037036  0 6.43287037037037  0 6.222222222222221  C 0 6.011574074074073  0.08040364583333333 5.829282407407405  0.2412109375 5.675347222222221  L 5.9287109375 0.23090277777777812  C 6.089518229166668 0.07696759259259167  6.279947916666668 0  6.5 0  C 6.720052083333334 0  6.910481770833334 0.07696759259259167  7.0712890625 0.23090277777777812  L 12.7587890625 5.675347222222221  Z " fill-rule="nonzero" fill="#cccccc" stroke="none" transform="matrix(1 0 0 1 569 78 )" />
  </g>
</svg>