<?xml version="1.0" encoding="utf-8"?>
<svg version="1.1" xmlns:xlink="http://www.w3.org/1999/xlink" width="9px" height="16px" xmlns="http://www.w3.org/2000/svg">
  <g>
    <path d="M 8.845360824742267 0.96192384769539  C 8.948453608247425 1.068804275217099  9 1.1917167668670654  9 1.330661322645291  C 9 1.469605878423513  8.948453608247425 1.5925183700734795  8.845360824742267 1.6993987975951903  L 2.768041237113402 8  L 8.845360824742267 14.30060120240481  C 8.948453608247425 14.40748162992652  9 14.530394121576485  9 14.669338677354709  C 9 14.808283233132933  8.948453608247425 14.931195724782897  8.845360824742267 15.03807615230461  L 8.072164948453608 15.839679358717435  C 7.969072164948455 15.946559786239145  7.850515463917527 16  7.716494845360824 16  C 7.582474226804125 16  7.463917525773198 15.946559786239145  7.360824742268041 15.839679358717435  L 0.15463917525773196 8.3687374749499  C 0.05154639175257736 8.261857047428188  0 8.138944555778222  0 8  C 0 7.861055444221776  0.05154639175257736 7.73814295257181  0.15463917525773196 7.631262525050101  L 7.360824742268041 0.1603206412825653  C 7.463917525773198 0.053440213760854505  7.582474226804125 0  7.716494845360824 0  C 7.850515463917527 0  7.969072164948455 0.053440213760854505  8.072164948453608 0.1603206412825653  L 8.845360824742267 0.96192384769539  Z " fill-rule="nonzero" fill="#000000" stroke="none" />
  </g>
</svg>