<?xml version="1.0" encoding="utf-8"?>
<svg version="1.1" xmlns:xlink="http://www.w3.org/1999/xlink" width="7px" height="7px" xmlns="http://www.w3.org/2000/svg">
  <g transform="matrix(1 0 0 1 -740 -53 )">
    <path d="M 743.5 53  C 745.46 53  747 54.54  747 56.5  C 747 58.46  745.46 60  743.5 60  C 741.54 60  740 58.46  740 56.5  C 740 54.54  741.54 53  743.5 53  Z " fill-rule="nonzero" fill="#ffffff" stroke="none" />
    <path d="M 743.5 53.5  C 745.18 53.5  746.5 54.82  746.5 56.5  C 746.5 58.18  745.18 59.5  743.5 59.5  C 741.82 59.5  740.5 58.18  740.5 56.5  C 740.5 54.82  741.82 53.5  743.5 53.5  Z " stroke-width="1" stroke="#ffffff" fill="none" />
  </g>
</svg>