<?xml version="1.0" encoding="utf-8"?>
<svg version="1.1" xmlns:xlink="http://www.w3.org/1999/xlink" width="18px" height="15px" xmlns="http://www.w3.org/2000/svg">
  <g transform="matrix(1 0 0 1 -1060 -374 )">
    <path d="M 7.896634615384615 8.586647727272728  C 8.170673076923077 8.85653409090909  8.307692307692308 9.176136363636363  8.307692307692308 9.545454545454545  L 8.307692307692308 13.636363636363637  C 8.307692307692308 14.00568181818182  8.170673076923077 14.325284090909092  7.896634615384615 14.595170454545455  C 7.622596153846155 14.865056818181818  7.298076923076924 15  6.923076923076923 15  L 1.3846153846153846 15  C 1.0096153846153848 15  0.685096153846154 14.865056818181818  0.4110576923076923 14.595170454545455  C 0.13701923076923075 14.325284090909092  0 14.00568181818182  0 13.636363636363637  L 0 9.545454545454545  C 0 9.176136363636363  0.13701923076923075 8.85653409090909  0.4110576923076923 8.586647727272728  C 0.685096153846154 8.316761363636363  1.0096153846153848 8.181818181818182  1.3846153846153846 8.181818181818182  L 6.923076923076923 8.181818181818182  C 7.298076923076924 8.181818181818182  7.622596153846155 8.316761363636363  7.896634615384615 8.586647727272728  Z M 7.896634615384615 0.4048295454545453  C 8.170673076923077 0.6747159090909083  8.307692307692308 0.9943181818181818  8.307692307692308 1.3636363636363642  L 8.307692307692308 5.454545454545455  C 8.307692307692308 5.823863636363635  8.170673076923077 6.143465909090909  7.896634615384615 6.413352272727273  C 7.622596153846155 6.683238636363637  7.298076923076924 6.818181818181818  6.923076923076923 6.818181818181818  L 1.3846153846153846 6.818181818181818  C 1.0096153846153848 6.818181818181818  0.685096153846154 6.683238636363637  0.4110576923076923 6.413352272727273  C 0.13701923076923075 6.143465909090909  0 5.823863636363635  0 5.454545454545455  L 0 1.3636363636363642  C 0 0.9943181818181818  0.13701923076923075 0.6747159090909083  0.4110576923076923 0.4048295454545453  C 0.685096153846154 0.13494318181818066  1.0096153846153848 0  1.3846153846153846 0  L 6.923076923076923 0  C 7.298076923076924 0  7.622596153846155 0.13494318181818066  7.896634615384615 0.4048295454545453  Z M 17.588942307692307 8.586647727272728  C 17.86298076923077 8.85653409090909  18 9.176136363636363  18 9.545454545454545  L 18 13.636363636363637  C 18 14.00568181818182  17.86298076923077 14.325284090909092  17.588942307692307 14.595170454545455  C 17.314903846153847 14.865056818181818  16.990384615384617 15  16.615384615384617 15  L 11.076923076923077 15  C 10.701923076923078 15  10.377403846153848 14.865056818181818  10.103365384615383 14.595170454545455  C 9.829326923076923 14.325284090909092  9.692307692307692 14.00568181818182  9.692307692307692 13.636363636363637  L 9.692307692307692 9.545454545454545  C 9.692307692307692 9.176136363636363  9.829326923076923 8.85653409090909  10.103365384615383 8.586647727272728  C 10.377403846153848 8.316761363636363  10.701923076923078 8.181818181818182  11.076923076923077 8.181818181818182  L 16.615384615384617 8.181818181818182  C 16.990384615384617 8.181818181818182  17.314903846153847 8.316761363636363  17.588942307692307 8.586647727272728  Z M 17.588942307692307 0.4048295454545453  C 17.86298076923077 0.6747159090909083  18 0.9943181818181818  18 1.3636363636363642  L 18 5.454545454545455  C 18 5.823863636363635  17.86298076923077 6.143465909090909  17.588942307692307 6.413352272727273  C 17.314903846153847 6.683238636363637  16.990384615384617 6.818181818181818  16.615384615384617 6.818181818181818  L 11.076923076923077 6.818181818181818  C 10.701923076923078 6.818181818181818  10.377403846153848 6.683238636363637  10.103365384615383 6.413352272727273  C 9.829326923076923 6.143465909090909  9.692307692307692 5.823863636363635  9.692307692307692 5.454545454545455  L 9.692307692307692 1.3636363636363642  C 9.692307692307692 0.9943181818181818  9.829326923076923 0.6747159090909083  10.103365384615383 0.4048295454545453  C 10.377403846153848 0.13494318181818066  10.701923076923078 0  11.076923076923077 0  L 16.615384615384617 0  C 16.990384615384617 0  17.314903846153847 0.13494318181818066  17.588942307692307 0.4048295454545453  Z " fill-rule="nonzero" fill="#cccccc" stroke="none" transform="matrix(1 0 0 1 1060 374 )" />
  </g>
</svg>