<?xml version="1.0" encoding="utf-8"?>
<svg version="1.1" xmlns:xlink="http://www.w3.org/1999/xlink" width="143px" height="36px" xmlns="http://www.w3.org/2000/svg">
  <defs>
    <filter x="815px" y="441px" width="143px" height="36px" filterUnits="userSpaceOnUse" id="filter62">
      <feOffset dx="1" dy="1" in="SourceAlpha" result="shadowOffsetInner" />
      <feGaussianBlur stdDeviation="1" in="shadowOffsetInner" result="shadowGaussian" />
      <feComposite in2="shadowGaussian" operator="atop" in="SourceAlpha" result="shadowComposite" />
      <feColorMatrix type="matrix" values="0 0 0 0 0  0 0 0 0 0  0 0 0 0 0  0 0 0 0.25098039215686274 0  " in="shadowComposite" />
    </filter>
    <g id="widget63">
      <path d="M 816.5 458  A 15.5 15.5 0 0 1 832 442.5 L 939 442.5  A 15.5 15.5 0 0 1 954.5 458 A 15.5 15.5 0 0 1 939 473.5 L 832 473.5  A 15.5 15.5 0 0 1 816.5 458 Z " fill-rule="nonzero" fill="#1e98d7" stroke="none" fill-opacity="0.25098039215686274" />
      <path d="M 816.5 458  A 15.5 15.5 0 0 1 832 442.5 L 939 442.5  A 15.5 15.5 0 0 1 954.5 458 A 15.5 15.5 0 0 1 939 473.5 L 832 473.5  A 15.5 15.5 0 0 1 816.5 458 Z " stroke-width="1" stroke="#1e98d7" fill="none" />
    </g>
  </defs>
  <g transform="matrix(1 0 0 1 -815 -441 )">
    <use xlink:href="#widget63" filter="url(#filter62)" />
    <use xlink:href="#widget63" />
  </g>
</svg>