<?xml version="1.0" encoding="utf-8"?>
<svg version="1.1" xmlns:xlink="http://www.w3.org/1999/xlink" width="12px" height="7px" xmlns="http://www.w3.org/2000/svg">
  <g transform="matrix(1 0 0 1 -1088 -644 )">
    <path d="M 11.77734375 0.23090277777777812  C 11.92578125 0.38483796296296224  12 0.5671296296296279  12 0.7777777777777781  C 12 0.9884259259259253  11.92578125 1.1707175925925917  11.77734375 1.3246527777777781  L 6.52734375 6.769097222222221  C 6.37890625 6.923032407407408  6.203125 7  6 7  C 5.796875000000001 7  5.621093750000001 6.923032407407408  5.47265625 6.769097222222221  L 0.22265625 1.3246527777777781  C 0.07421875 1.1707175925925917  0 0.9884259259259253  0 0.7777777777777781  C 0 0.5671296296296279  0.07421875 0.38483796296296224  0.22265625 0.23090277777777812  C 0.37109375 0.07696759259259167  0.546875 0  0.75 0  L 11.25 0  C 11.453125 0  11.62890625 0.07696759259259167  11.77734375 0.23090277777777812  Z " fill-rule="nonzero" fill="#000000" stroke="none" transform="matrix(1 0 0 1 1088 644 )" />
  </g>
</svg>