<?xml version="1.0" encoding="utf-8"?>
<svg version="1.1" xmlns:xlink="http://www.w3.org/1999/xlink" width="127px" height="36px" xmlns="http://www.w3.org/2000/svg">
  <defs>
    <filter x="983px" y="567px" width="127px" height="36px" filterUnits="userSpaceOnUse" id="filter71">
      <feOffset dx="1" dy="1" in="SourceAlpha" result="shadowOffsetInner" />
      <feGaussianBlur stdDeviation="1" in="shadowOffsetInner" result="shadowGaussian" />
      <feComposite in2="shadowGaussian" operator="atop" in="SourceAlpha" result="shadowComposite" />
      <feColorMatrix type="matrix" values="0 0 0 0 0  0 0 0 0 0  0 0 0 0 0  0 0 0 0.25098039215686274 0  " in="shadowComposite" />
    </filter>
    <g id="widget72">
      <path d="M 984.5 584  A 15.5 15.5 0 0 1 1000 568.5 L 1091 568.5  A 15.5 15.5 0 0 1 1106.5 584 A 15.5 15.5 0 0 1 1091 599.5 L 1000 599.5  A 15.5 15.5 0 0 1 984.5 584 Z " fill-rule="nonzero" fill="#1e98d7" stroke="none" fill-opacity="0.25098039215686274" />
      <path d="M 984.5 584  A 15.5 15.5 0 0 1 1000 568.5 L 1091 568.5  A 15.5 15.5 0 0 1 1106.5 584 A 15.5 15.5 0 0 1 1091 599.5 L 1000 599.5  A 15.5 15.5 0 0 1 984.5 584 Z " stroke-width="1" stroke="#1e98d7" fill="none" />
    </g>
  </defs>
  <g transform="matrix(1 0 0 1 -983 -567 )">
    <use xlink:href="#widget72" filter="url(#filter71)" />
    <use xlink:href="#widget72" />
  </g>
</svg>