<?xml version="1.0" encoding="utf-8"?>
<svg version="1.1" xmlns:xlink="http://www.w3.org/1999/xlink" width="23px" height="20px" xmlns="http://www.w3.org/2000/svg">
  <g transform="matrix(1 0 0 1 -283 -280 )">
    <path d="M 10.72645739910314 15  L 11.448430493273543 15  L 12.943946188340806 13.352272727272727  L 10.984304932735427 11.193181818181817  L 9.488789237668161 12.840909090909092  L 9.488789237668161 13.636363636363637  L 10.72645739910314 13.636363636363637  L 10.72645739910314 15  Z M 17.108183856502244 5.241477272727273  C 17.254297458893873 5.080492424242422  17.258594917787743 4.924242424242422  17.121076233183857 4.772727272727273  C 16.98355754857997 4.621212121212119  16.841741405082214 4.625946969696968  16.69562780269058 4.786931818181818  L 12.183295964125561 9.758522727272727  C 12.037182361733931 9.919507575757576  12.03288490284006 10.075757575757574  12.170403587443946 10.227272727272727  C 12.307922272047835 10.378787878787879  12.449738415545593 10.374053030303028  12.59585201793722 10.213068181818183  L 17.108183856502244 5.241477272727273  Z M 17.894618834080717 12.798295454545453  C 18.066517189835576 12.874053030303028  18.152466367713004 13.011363636363637  18.152466367713004 13.210227272727273  L 18.152466367713004 15.909090909090908  C 18.152466367713004 17.035984848484848  17.78933109118087 17.999526515151516  17.06306053811659 18.799715909090907  C 16.33678998505232 19.599905303030305  15.462257100149477 20  14.439461883408072 20  L 3.713004484304933 20  C 2.690209267563528 20  1.8156763826606876 19.599905303030305  1.0894058295964124 18.799715909090907  C 0.36313527653213745 17.999526515151516  0 17.035984848484848  0 15.909090909090908  L 0 4.090909090909092  C 0 2.964015151515149  0.36313527653213745 2.000473484848484  1.0894058295964124 1.2002840909090917  C 1.8156763826606876 0.400094696969695  2.690209267563528 0  3.713004484304933 0  L 14.439461883408072 0  C 14.980941704035876 0  15.483744394618833 0.11837121212121104  15.947869955156952 0.35511363636363535  C 16.076793721973093 0.4214015151515138  16.154147982062778 0.5303030303030298  16.17993273542601 0.6818181818181812  C 16.205717488789237 0.8428030303030298  16.167040358744394 0.9801136363636354  16.06390134529148 1.09375  L 15.432174887892376 1.789772727272727  C 15.311846038863976 1.922348484848484  15.174327354260091 1.960227272727273  15.019618834080719 1.9034090909090917  C 14.821935724962632 1.8465909090909083  14.628550074738417 1.8181818181818188  14.439461883408072 2  L 3.713004484304933 2  C 3.1457399103139014 1.8181818181818188  2.660127055306428 2.040719696969695  2.256165919282511 2.485795454545454  C 1.8522047832585953 2.930871212121211  1.6502242152466366 3.4659090909090917  2 4.090909090909092  L 2 15.909090909090908  C 1.6502242152466366 16.534090909090907  1.8522047832585953 17.069128787878785  2.256165919282511 17.514204545454547  C 2.660127055306428 17.959280303030305  3.1457399103139014 18.18181818181818  3.713004484304933 18  L 14.439461883408072 18  C 15.006726457399104 18.18181818181818  15.492339312406576 17.959280303030305  15.896300448430495 17.514204545454547  C 16.30026158445441 17.069128787878785  16.502242152466366 16.534090909090907  16.502242152466366 15.909090909090908  L 16.502242152466366 14.119318181818183  C 16.502242152466366 13.99621212121212  16.54091928251121 13.892045454545453  16.618273542600896 13.806818181818183  L 17.443385650224215 12.897727272727273  C 17.57230941704036 12.755681818181817  17.72272047832586 12.722537878787879  17.894618834080717 12.798295454545453  Z M 8.251121076233183 12.272727272727273  L 16.91479820627803 2.727272727272727  L 20.62780269058296 6.818181818181818  L 11.964125560538115 16.363636363636363  L 8.251121076233183 16.363636363636363  L 8.251121076233183 12.272727272727273  Z M 23 3.6363636363636354  C 23 4.015151515151514  22.8796711509716 4.337121212121211  22.639013452914796 4.602272727272727  L 21.45291479820628 5.909090909090908  L 17.739910313901344 1.8181818181818188  L 18.926008968609867 0.5113636363636354  C 19.166666666666668 0.24621212121211933  19.458893871449927 0.11363636363636465  19.80269058295964 0.11363636363636465  C 20.14648729446936 0.11363636363636465  20.438714499252615 0.24621212121211933  20.67937219730942 0.5113636363636354  L 22.639013452914796 2.670454545454546  C 22.8796711509716 2.9356060606060574  23 3.257575757575757  23 3.6363636363636354  Z " fill-rule="nonzero" fill="#000000" stroke="none" transform="matrix(1 0 0 1 283 280 )" />
  </g>
</svg>