<?xml version="1.0" encoding="utf-8"?>
<svg version="1.1" xmlns:xlink="http://www.w3.org/1999/xlink" width="26px" height="23px" xmlns="http://www.w3.org/2000/svg">
  <g transform="matrix(1 0 0 1 -414 -428 )">
    <path d="M 14 10.352764423076923  L 14 20.746995192307693  L 24 15.923076923076923  L 24 7.132211538461538  L 14 10.352764423076923  Z M 2.09375 5.2800480769230775  L 13 8.790865384615383  L 23.90625 5.2800480769230775  L 13 1.769230769230768  L 2.09375 5.2800480769230775  Z M 25.640625 4.298677884615384  C 25.880208333333336 4.6027644230769225  26 4.939102564102562  26 5.307692307692307  L 26 15.923076923076923  C 26 16.24559294871795  25.90625 16.545072115384617  25.71875 16.821514423076923  C 25.53125 17.097956730769234  25.276041666666668 17.314503205128204  24.953125 17.471153846153847  L 13.953125 22.778846153846153  C 13.661458333333334 22.92628205128205  13.34375 23  13 23  C 12.65625 23  12.338541666666668 22.92628205128205  12.046875 22.778846153846153  L 1.046875 17.471153846153847  C 0.7239583333333334 17.314503205128204  0.46875000000000006 17.097956730769234  0.28125 16.821514423076923  C 0.09375 16.545072115384617  0 16.24559294871795  0 15.923076923076923  L 0 5.307692307692307  C 0 4.939102564102562  0.11979166666666664 4.6027644230769225  0.359375 4.298677884615384  C 0.5989583333333334 3.9945913461538454  0.9166666666666666 3.7780448717948714  1.3125 3.6490384615384612  L 12.3125 0.11057692307692268  C 12.541666666666668 0.036858974358971675  12.770833333333336 0  13 0  C 13.229166666666668 0  13.458333333333334 0.036858974358971675  13.6875 0.11057692307692268  L 24.6875 3.6490384615384612  C 25.083333333333336 3.7780448717948714  25.401041666666668 3.9945913461538454  25.640625 4.298677884615384  Z " fill-rule="nonzero" fill="#fdfdfd" stroke="none" transform="matrix(1 0 0 1 414 428 )" />
  </g>
</svg>