<?xml version="1.0" encoding="utf-8"?>
<svg version="1.1" xmlns:xlink="http://www.w3.org/1999/xlink" width="25px" height="20px" xmlns="http://www.w3.org/2000/svg">
  <g transform="matrix(1 0 0 1 -416 -136 )">
    <path d="M 21.40644361833953 11.42634450506625  C 21.416769929781083 11.447129124447908  21.42193308550186 11.478306053520395  21.42193308550186 11.51987529228371  L 21.42193308550186 19.002338269680436  C 21.42193308550186 19.27253832164198  21.323833126807106 19.506365289685633  21.127633209417596 19.70381917381138  C 20.93143329202809 19.90127305793713  20.699091284593145 20  20.430607187112763 20  L 14.482651796778189 20  L 14.482651796778189 14.01402961808262  L 10.51734820322181 14.01402961808262  L 10.51734820322181 20  L 4.569392812887236 20  C 4.300908715406857 20  4.068566707971913 19.90127305793713  3.8723667905824035 19.70381917381138  C 3.676166873192896 19.506365289685633  3.578066914498141 19.27253832164198  3.578066914498141 19.002338269680436  L 3.578066914498141 11.51987529228371  C 3.578066914498141 11.50948298259288  3.58064849235853 11.493894518056639  3.585811648079306 11.47310989867498  C 3.590974803800083 11.452325279293323  3.593556381660471 11.43673681475708  3.593556381660471 11.42634450506625  L 12.5 4.037412314886984  L 21.40644361833953 11.42634450506625  Z M 24.98451053283767 10.077942322681217  C 24.994836844279224 10.218238503507404  24.95869475423379 10.340348142374642  24.87608426270136 10.444271239282932  L 23.915737298636927 11.597817614964928  C 23.833126807104506 11.691348402182387  23.724700536968196 11.748506105481944  23.590458488228006 11.769290724863602  L 23.543990086741015 11.769290724863602  C 23.409748038000828 11.769290724863602  23.301321767864522 11.732917640945699  23.218711276332094 11.660171473109898  L 12.5 2.665627435697584  L 1.7812887236679058 11.660171473109898  C 1.657372986369269 11.743309950636526  1.533457249070632 11.779683034554429  1.409541511771995 11.769290724863602  C 1.275299463031805 11.748506105481944  1.1668731928954978 11.691348402182387  1.084262701363073 11.597817614964928  L 0.12391573729863693 10.444271239282932  C 0.04130524576621233 10.340348142374642  0.005163155720776576 10.218238503507404  0.015489467162329617 10.077942322681217  C 0.025815778603882768 9.937646141855028  0.08261049153242465 9.825928812678617  0.18587360594795538 9.742790335151987  L 11.32280049566295 0.40530007794232326  C 11.653242461792649 0.1351000259807722  12.045642296571666 0  12.5 0  C 12.954357703428338 0  13.346757538207354 0.1351000259807722  13.67719950433705 0.40530007794232326  L 17.456629491945478 3.5853468433359303  L 17.456629491945478 0.5455962587685104  C 17.456629491945478 0.4001039230969061  17.503097893432464 0.28059236165237644  17.59603469640644 0.1870615744349191  C 17.688971499380422 0.09353078721745955  17.80772408095828 0.04676539360872978  17.952292441140024 0.04676539360872978  L 20.926270136307313 0.04676539360872978  C 21.070838496489056 0.04676539360872978  21.189591078066915 0.09353078721745955  21.28252788104089 0.1870615744349191  C 21.37546468401487 0.28059236165237644  21.42193308550186 0.4001039230969061  21.42193308550186 0.5455962587685104  L 21.42193308550186 6.905689789555729  L 24.814126394052042 9.742790335151987  C 24.917389508467576 9.825928812678617  24.97418422139612 9.937646141855028  24.98451053283767 10.077942322681217  Z " fill-rule="nonzero" fill="#fdfdfd" stroke="none" transform="matrix(1 0 0 1 416 136 )" />
  </g>
</svg>