<?xml version="1.0" encoding="utf-8"?>
<svg version="1.1" xmlns:xlink="http://www.w3.org/1999/xlink" width="25px" height="16px" xmlns="http://www.w3.org/2000/svg">
  <g transform="matrix(1 0 0 1 -416 -307 )">
    <path d="M 1.4756944444444444 9.494505494505495  C 1.5914351851851853 9.72893772893773  1.7939814814814814 9.846153846153847  2.083333333333333 9.846153846153847  C 2.372685185185185 9.846153846153847  2.5752314814814814 9.72893772893773  2.6909722222222223 9.494505494505495  C 2.8067129629629632 9.26007326007326  2.8067129629629632 9.025641025641026  2.6909722222222223 8.791208791208792  C 2.5752314814814814 8.556776556776557  2.372685185185185 8.43956043956044  2.083333333333333 8.43956043956044  C 1.7939814814814814 8.43956043956044  1.5914351851851853 8.556776556776557  1.4756944444444444 8.791208791208792  C 1.359953703703704 9.025641025641026  1.359953703703704 9.26007326007326  1.4756944444444444 9.494505494505495  Z M 18.397352430555554 10.016483516483516  C 18.372034143518523 9.727106227106226  18.261718750000004 9.457875457875456  18.06640625 9.208791208791208  C 17.994068287037038 9.113553113553113  17.854817708333336 8.930402930402929  17.64865451388889 8.65934065934066  C 17.442491319444446 8.388278388278387  17.292390046296298 8.19047619047619  17.198350694444446 8.065934065934066  C 17.10431134259259 7.941391941391942  16.966869212962965 7.761904761904761  16.786024305555554 7.527472527472527  C 16.605179398148152 7.293040293040292  16.45146122685185 7.0989010989010985  16.324869791666664 6.945054945054945  C 16.19827835648148 6.791208791208792  16.05179398148148 6.619047619047619  15.885416666666666 6.428571428571429  C 15.719039351851851 6.238095238095237  15.556278935185187 6.058608058608058  15.397135416666666 5.8901098901098905  L 14.04079861111111 7.428571428571429  C 13.44039351851852 8.117216117216117  12.686270254629632 8.454212454212453  11.778428819444445 8.43956043956044  C 10.870587384259261 8.424908424908423  10.127314814814817 8.065934065934066  9.54861111111111 7.362637362637363  C 9.136284722222223 6.857142857142858  8.931929976851853 6.278388278388277  8.935546875 5.626373626373626  C 8.939163773148149 4.9743589743589745  9.150752314814815 4.399267399267398  9.5703125 3.9010989010989015  L 11.490885416666668 1.6373626373626369  C 11.331741898148149 1.5567765567765548  11.147280092592595 1.4963369963369946  10.9375 1.4560439560439562  C 10.727719907407408 1.4157509157509143  10.55591724537037 1.3937728937728924  10.42209201388889 1.3901098901098905  C 10.288266782407408 1.386446886446885  10.08391203703704 1.388278388278387  9.809027777777777 1.395604395604396  C 9.534143518518519 1.4029304029304015  9.35691550925926 1.406593406593407  9.27734375 1.406593406593407  C 8.61183449074074 1.406593406593407  8.040364583333332 1.6483516483516478  7.562934027777778 2.1318681318681314  L 5.848524305555555 3.8681318681318686  L 4.166666666666666 3.8681318681318686  L 4.166666666666666 9.846153846153847  C 4.202835648148148 9.846153846153847  4.2787905092592595 9.844322344322347  4.39453125 9.84065934065934  C 4.510271990740741 9.836996336996336  4.58984375 9.836996336996336  4.633246527777778 9.84065934065934  C 4.676649305555555 9.844322344322347  4.747178819444445 9.85164835164835  4.844835069444445 9.862637362637361  C 4.942491319444445 9.873626373626372  5.016637731481482 9.89010989010989  5.067274305555555 9.912087912087912  C 5.117910879629631 9.934065934065934  5.181206597222223 9.965201465201464  5.257161458333334 10.005494505494505  C 5.333116319444445 10.045787545787544  5.400028935185186 10.095238095238095  5.457899305555555 10.153846153846153  L 8.680555555555555 13.362637362637363  C 9.512442129629632 14.175824175824175  10.333478009259261 14.582417582417582  11.143663194444445 14.582417582417582  C 11.707899305555555 14.582417582417582  12.160011574074076 14.410256410256409  12.5 14.065934065934066  C 12.91232638888889 14.212454212454212  13.319227430555555 14.183150183150184  13.720703125 13.978021978021978  C 14.122178819444445 13.772893772893772  14.384403935185187 13.461538461538462  14.507378472222221 13.043956043956044  C 15.04267939814815 13.087912087912088  15.502025462962965 12.926739926739927  15.885416666666666 12.56043956043956  C 16.03009259259259 12.428571428571429  16.160300925925927 12.261904761904761  16.276041666666664 12.06043956043956  C 16.39178240740741 11.858974358974358  16.44241898148148 11.673992673992673  16.42795138888889 11.505494505494505  C 16.50028935185185 11.57875457875458  16.65581597222222 11.615384615384615  16.89453125 11.615384615384615  C 17.20558449074074 11.615384615384615  17.484085648148152 11.538461538461538  17.73003472222222 11.384615384615385  C 17.975983796296298 11.23076923076923  18.155020254629633 11.036630036630036  18.26714409722222 10.802197802197803  C 18.379267939814817 10.567765567765566  18.42267071759259 10.305860805860805  18.397352430555554 10.016483516483516  Z M 19.140625 8.307692307692307  C 19.51678240740741 8.791208791208792  19.733796296296298 9.304029304029303  19.791666666666664 9.846153846153847  L 20.833333333333336 9.846153846153847  L 20.833333333333336 4.219780219780219  L 19.82421875 4.219780219780219  L 18.12065972222222 2.241758241758241  C 17.643229166666664 1.6849816849816843  17.03197337962963 1.406593406593407  16.28689236111111 1.406593406593407  L 14.47482638888889 1.406593406593407  C 13.83101851851852 1.406593406593407  13.30295138888889 1.6520146520146515  12.890625 2.1428571428571423  L 10.62282986111111 4.813186813186814  C 10.420283564814817 5.054945054945055  10.319010416666668 5.32967032967033  10.319010416666668 5.637362637362637  C 10.319010416666668 5.945054945054945  10.416666666666668 6.219780219780219  10.611979166666668 6.461538461538462  C 10.923032407407408 6.835164835164836  11.320891203703704 7.0256410256410255  11.805555555555555 7.032967032967033  C 12.290219907407408 7.04029304029304  12.691695601851851 6.8608058608058595  13.00998263888889 6.4945054945054945  L 15.104166666666666 4.0989010989010985  C 15.285011574074076 3.930402930402929  15.478515625 3.851648351648352  15.684678819444445 3.862637362637363  C 15.89084201388889 3.873626373626374  16.06083622685185 3.9725274725274726  16.194661458333336 4.159340659340659  C 16.328486689814817 4.346153846153847  16.359230324074076 4.553113553113553  16.28689236111111 4.780219780219781  C 16.40263310185185 4.91941391941392  16.605179398148152 5.15018315018315  16.89453125 5.472527472527473  C 17.18388310185185 5.794871794871794  17.40089699074074 6.043956043956044  17.545572916666664 6.219780219780219  C 17.755353009259263 6.483516483516484  18.05374710648148 6.86996336996337  18.440755208333336 7.3791208791208796  C 18.827763310185187 7.888278388278387  19.06105324074074 8.197802197802197  19.140625 8.307692307692307  Z M 22.30902777777778 9.494505494505495  C 22.424768518518523 9.72893772893773  22.627314814814817 9.846153846153847  22.916666666666664 9.846153846153847  C 23.206018518518523 9.846153846153847  23.408564814814817 9.72893772893773  23.524305555555554 9.494505494505495  C 23.640046296296298 9.26007326007326  23.640046296296298 9.025641025641026  23.524305555555554 8.791208791208792  C 23.408564814814817 8.556776556776557  23.206018518518523 8.43956043956044  22.916666666666664 8.43956043956044  C 22.627314814814817 8.43956043956044  22.424768518518523 8.556776556776557  22.30902777777778 8.791208791208792  C 22.193287037037038 9.025641025641026  22.193287037037038 9.26007326007326  22.30902777777778 9.494505494505495  Z M 24.793836805555554 3.021978021978022  C 24.93127893518519 3.161172161172159  25 3.326007326007325  25 3.5164835164835164  L 25 10.54945054945055  C 25 10.739926739926739  24.93127893518519 10.904761904761905  24.793836805555554 11.043956043956044  C 24.656394675925927 11.183150183150182  24.493634259259263 11.252747252747252  24.305555555555554 11.252747252747252  L 19.596354166666664 11.252747252747252  C 19.401041666666668 11.728937728937728  19.104456018518523 12.119047619047619  18.70659722222222 12.423076923076923  C 18.308738425925927 12.727106227106228  17.85662615740741 12.915750915750914  17.350260416666664 12.989010989010989  C 17.111545138888893 13.340659340659341  16.820384837962965 13.63919413919414  16.47677951388889 13.884615384615385  C 16.133174189814817 14.13003663003663  15.762442129629632 14.296703296703297  15.364583333333334 14.384615384615385  C 15.06076388888889 14.772893772893772  14.682798032407407 15.071428571428571  14.23068576388889 15.280219780219781  C 13.778573495370372 15.489010989010989  13.313802083333334 15.57875457875458  12.836371527777779 15.54945054945055  C 12.40234375 15.7985347985348  11.946614583333332 15.943223443223442  11.469184027777777 15.983516483516484  C 10.991753472222223 16.023809523809526  10.530598958333332 15.972527472527473  10.08572048611111 15.82967032967033  C 9.64084201388889 15.686813186813186  9.217664930555555 15.49084249084249  8.81618923611111 15.241758241758241  C 8.414713541666668 14.992673992673993  8.040364583333332 14.695970695970695  7.693142361111111 14.351648351648352  L 4.578993055555555 11.252747252747252  L 0.6944444444444444 11.252747252747252  C 0.5063657407407408 11.252747252747252  0.34360532407407407 11.183150183150182  0.20616319444444445 11.043956043956044  C 0.06872106481481481 10.904761904761905  0 10.739926739926739  0 10.54945054945055  L 0 3.1648351648351642  C 0 2.9743589743589727  0.06872106481481481 2.8095238095238084  0.20616319444444445 2.6703296703296697  C 0.34360532407407407 2.531135531135531  0.5063657407407408 2.4615384615384617  0.6944444444444444 2.4615384615384617  L 5.262586805555555 2.4615384615384617  C 5.363859953703704 2.3589743589743577  5.533854166666666 2.1831501831501807  5.772569444444445 1.9340659340659343  C 6.011284722222222 1.6849816849816843  6.1830873842592595 1.5091575091575091  6.287977430555555 1.406593406593407  C 6.392867476851853 1.304029304029303  6.55201099537037 1.157509157509157  6.765407986111111 0.9670329670329672  C 6.978804976851853 0.7765567765567756  7.161458333333333 0.6391941391941369  7.313368055555555 0.5549450549450547  C 7.465277777777778 0.470695970695969  7.649739583333333 0.37728937728937595  7.866753472222222 0.2747252747252755  C 8.08376736111111 0.17216117216116977  8.308015046296296 0.1007326007325986  8.539496527777777 0.060439560439560225  C 8.770978009259261 0.020146520146520075  9.016927083333334 0  9.27734375 0  L 10.546875 0  C 11.263020833333332 0  11.917679398148149 0.20512820512820262  12.510850694444445 0.615384615384615  C 13.10402199074074 0.20512820512820262  13.758680555555555 0  14.47482638888889 0  L 16.28689236111111 0  C 16.54007523148148 0  16.78240740740741 0.0219780219780219  17.01388888888889 0.0659340659340657  C 17.245370370370374 0.1098901098901095  17.44972511574074 0.16300366300366242  17.626953125 0.22527472527472447  C 17.804181134259263 0.2875457875457865  17.99045138888889 0.384615384615385  18.18576388888889 0.5164835164835164  C 18.38107638888889 0.6483516483516478  18.54202835648148 0.761904761904761  18.668619791666664 0.8571428571428577  C 18.79521122685185 0.9523809523809508  18.95073784722222 1.0970695970695967  19.13519965277778 1.291208791208792  C 19.319661458333336 1.4853479853479836  19.46072048611111 1.639194139194137  19.55837673611111 1.7527472527472536  C 19.65603298611111 1.866300366300365  19.804325810185187 2.042124542124542  20.003255208333336 2.280219780219781  C 20.20218460648148 2.5183150183150165  20.35228587962963 2.6959706959706953  20.45355902777778 2.813186813186814  L 24.305555555555554 2.813186813186814  C 24.493634259259263 2.813186813186814  24.656394675925927 2.8827838827838814  24.793836805555554 3.021978021978022  Z " fill-rule="nonzero" fill="#fdfdfd" stroke="none" transform="matrix(1 0 0 1 416 307 )" />
  </g>
</svg>