<?xml version="1.0" encoding="utf-8"?>
<svg version="1.1" xmlns:xlink="http://www.w3.org/1999/xlink" width="114px" height="36px" xmlns="http://www.w3.org/2000/svg">
  <defs>
    <filter x="705px" y="441px" width="114px" height="36px" filterUnits="userSpaceOnUse" id="filter86">
      <feOffset dx="1" dy="1" in="SourceAlpha" result="shadowOffsetInner" />
      <feGaussianBlur stdDeviation="1" in="shadowOffsetInner" result="shadowGaussian" />
      <feComposite in2="shadowGaussian" operator="atop" in="SourceAlpha" result="shadowComposite" />
      <feColorMatrix type="matrix" values="0 0 0 0 0  0 0 0 0 0  0 0 0 0 0  0 0 0 0.25098039215686274 0  " in="shadowComposite" />
    </filter>
    <g id="widget87">
      <path d="M 706.5 458  A 15.5 15.5 0 0 1 722 442.5 L 800 442.5  A 15.5 15.5 0 0 1 815.5 458 A 15.5 15.5 0 0 1 800 473.5 L 722 473.5  A 15.5 15.5 0 0 1 706.5 458 Z " fill-rule="nonzero" fill="#1e98d7" stroke="none" fill-opacity="0.25098039215686274" />
      <path d="M 706.5 458  A 15.5 15.5 0 0 1 722 442.5 L 800 442.5  A 15.5 15.5 0 0 1 815.5 458 A 15.5 15.5 0 0 1 800 473.5 L 722 473.5  A 15.5 15.5 0 0 1 706.5 458 Z " stroke-width="1" stroke="#1e98d7" fill="none" />
    </g>
  </defs>
  <g transform="matrix(1 0 0 1 -705 -441 )">
    <use xlink:href="#widget87" filter="url(#filter86)" />
    <use xlink:href="#widget87" />
  </g>
</svg>