<?xml version="1.0" encoding="utf-8"?>
<svg version="1.1" xmlns:xlink="http://www.w3.org/1999/xlink" width="139px" height="32px" xmlns="http://www.w3.org/2000/svg">
  <g transform="matrix(1 0 0 1 -816 -442 )">
    <path d="M 816.5 458  A 15.5 15.5 0 0 1 832 442.5 L 939 442.5  A 15.5 15.5 0 0 1 954.5 458 A 15.5 15.5 0 0 1 939 473.5 L 832 473.5  A 15.5 15.5 0 0 1 816.5 458 Z " fill-rule="nonzero" fill="#ffffff" stroke="none" />
    <path d="M 816.5 458  A 15.5 15.5 0 0 1 832 442.5 L 939 442.5  A 15.5 15.5 0 0 1 954.5 458 A 15.5 15.5 0 0 1 939 473.5 L 832 473.5  A 15.5 15.5 0 0 1 816.5 458 Z " stroke-width="1" stroke="#c2c2c2" fill="none" />
  </g>
</svg>