<?xml version="1.0" encoding="utf-8"?>
<svg version="1.1" xmlns:xlink="http://www.w3.org/1999/xlink" width="123px" height="32px" xmlns="http://www.w3.org/2000/svg">
  <g transform="matrix(1 0 0 1 -984 -568 )">
    <path d="M 984.5 584  A 15.5 15.5 0 0 1 1000 568.5 L 1091 568.5  A 15.5 15.5 0 0 1 1106.5 584 A 15.5 15.5 0 0 1 1091 599.5 L 1000 599.5  A 15.5 15.5 0 0 1 984.5 584 Z " fill-rule="nonzero" fill="#dedede" stroke="none" />
    <path d="M 984.5 584  A 15.5 15.5 0 0 1 1000 568.5 L 1091 568.5  A 15.5 15.5 0 0 1 1106.5 584 A 15.5 15.5 0 0 1 1091 599.5 L 1000 599.5  A 15.5 15.5 0 0 1 984.5 584 Z " stroke-width="1" stroke="#c2c2c2" fill="none" />
  </g>
</svg>