<?xml version="1.0" encoding="utf-8"?>
<svg version="1.1" xmlns:xlink="http://www.w3.org/1999/xlink" width="23px" height="20px" xmlns="http://www.w3.org/2000/svg">
  <g transform="matrix(1 0 0 1 -335 -280 )">
    <path d="M 22.756138392857142 6.637500000000001  C 22.918712797619047 6.7958333333333325  23 6.9833333333333325  23 7.199999999999999  C 23 7.416666666666664  22.918712797619047 7.604166666666665  22.756138392857142 7.762500000000001  L 16.18470982142857 14.1625  C 16.022135416666668 14.320833333333331  15.829613095238097 14.399999999999999  15.607142857142858 14.399999999999999  C 15.384672619047619 14.399999999999999  15.192150297619047 14.320833333333331  15.029575892857142 14.1625  C 14.86700148809524 14.004166666666666  14.785714285714286 13.816666666666666  14.785714285714286 13.599999999999998  L 14.785714285714286 10.4  L 11.910714285714286 10.4  C 11.07217261904762 10.4  10.321335565476192 10.425  9.658203125 10.474999999999998  C 8.99507068452381 10.525  8.336216517857144 10.614583333333334  7.681640625 10.743749999999999  C 7.027064732142857 10.872916666666665  6.458054315476192 11.05  5.974609375 11.274999999999999  C 5.49116443452381 11.5  5.0398065476190474 11.789583333333333  4.620535714285714 12.14375  C 4.201264880952381 12.497916666666665  3.8590029761904767 12.918750000000001  3.59375 13.40625  C 3.328497023809524 13.89375  3.1210007440476195 14.470833333333331  2.9712611607142856 15.1375  C 2.8215215773809526 15.804166666666665  2.746651785714286 16.558333333333334  2.746651785714286 17.4  C 2.746651785714286 17.858333333333334  2.768043154761905 18.370833333333334  2.810825892857143 18.9375  C 2.8108258928571432 18.9875  2.8215215773809526 19.085416666666667  2.842912946428571 19.23125  C 2.8643043154761907 19.377083333333335  2.875 19.4875  2.875 19.5625  C 2.875 19.6875  2.838634672619048 19.791666666666664  2.765904017857143 19.875  C 2.6931733630952386 19.958333333333332  2.592633928571429 20  2.464285714285714 20  C 2.3273809523809526 20  2.207589285714286 19.929166666666667  2.104910714285714 19.7875  C 2.045014880952381 19.7125  1.9893973214285714 19.620833333333334  1.9380580357142858 19.5125  C 1.88671875 19.40416666666667  1.8289620535714286 19.279166666666665  1.7647879464285714 19.1375  C 1.7006138392857142 18.995833333333334  1.6556919642857142 18.895833333333336  1.6300223214285714 18.8375  C 0.5433407738095237 16.4625  0 14.58333333333333  0 13.2  C 0 11.541666666666666  0.22674851190476186 10.154166666666665  0.6802455357142857 9.037500000000001  C 2.06640625 5.679166666666666  5.809895833333332 3.999999999999999  11.910714285714286 3.999999999999999  L 14.785714285714286 3.999999999999999  L 14.785714285714286 0.8000000000000007  C 14.785714285714286 0.5833333333333313  14.86700148809524 0.3958333333333308  15.029575892857142 0.23749999999999938  C 15.192150297619047 0.07916666666666572  15.384672619047619 0  15.607142857142858 0  C 15.829613095238097 0  16.022135416666668 0.07916666666666572  16.18470982142857 0.23749999999999938  L 22.756138392857142 6.637500000000001  Z " fill-rule="nonzero" fill="#000000" stroke="none" transform="matrix(1 0 0 1 335 280 )" />
  </g>
</svg>