<?xml version="1.0" encoding="utf-8"?>
<svg version="1.1" xmlns:xlink="http://www.w3.org/1999/xlink" width="19px" height="15px" xmlns="http://www.w3.org/2000/svg">
  <g transform="matrix(1 0 0 1 -1028 -374 )">
    <path d="M 5.131696428571428 11.207386363636363  C 5.329613095238095 11.406249999999998  5.428571428571428 11.647727272727272  5.428571428571428 11.931818181818182  L 5.428571428571428 13.977272727272728  C 5.428571428571428 14.261363636363637  5.329613095238095 14.502840909090908  5.131696428571428 14.701704545454545  C 4.933779761904763 14.900568181818182  4.693452380952381 15  4.410714285714286 15  L 1.0178571428571428 15  C 0.7351190476190478 15  0.4947916666666667 14.900568181818182  0.296875 14.701704545454545  C 0.09895833333333333 14.502840909090908  0 14.261363636363637  0 13.977272727272728  L 0 11.931818181818182  C 0 11.647727272727272  0.09895833333333333 11.406249999999998  0.296875 11.207386363636363  C 0.4947916666666667 11.008522727272728  0.7351190476190478 10.90909090909091  1.0178571428571428 10.90909090909091  L 4.410714285714286 10.90909090909091  C 4.693452380952381 10.90909090909091  4.933779761904763 11.008522727272728  5.131696428571428 11.207386363636363  Z M 5.131696428571428 5.752840909090909  C 5.329613095238095 5.951704545454543  5.428571428571428 6.1931818181818175  5.428571428571428 6.477272727272727  L 5.428571428571428 8.522727272727272  C 5.428571428571428 8.806818181818182  5.329613095238095 9.048295454545453  5.131696428571428 9.24715909090909  C 4.933779761904763 9.446022727272727  4.693452380952381 9.545454545454545  4.410714285714286 9.545454545454545  L 1.0178571428571428 9.545454545454545  C 0.7351190476190478 9.545454545454545  0.4947916666666667 9.446022727272727  0.296875 9.24715909090909  C 0.09895833333333333 9.048295454545453  0 8.806818181818182  0 8.522727272727272  L 0 6.477272727272727  C 0 6.1931818181818175  0.09895833333333333 5.951704545454543  0.296875 5.752840909090909  C 0.4947916666666667 5.5539772727272725  0.7351190476190478 5.454545454545455  1.0178571428571428 5.454545454545455  L 4.410714285714286 5.454545454545455  C 4.693452380952381 5.454545454545455  4.933779761904763 5.5539772727272725  5.131696428571428 5.752840909090909  Z M 11.917410714285715 11.207386363636363  C 12.115327380952381 11.406249999999998  12.214285714285715 11.647727272727272  12.214285714285715 11.931818181818182  L 12.214285714285715 13.977272727272728  C 12.214285714285715 14.261363636363637  12.115327380952381 14.502840909090908  11.917410714285715 14.701704545454545  C 11.71949404761905 14.900568181818182  11.479166666666668 15  11.196428571428571 15  L 7.803571428571428 15  C 7.520833333333334 15  7.2805059523809526 14.900568181818182  7.082589285714286 14.701704545454545  C 6.8846726190476195 14.502840909090908  6.785714285714286 14.261363636363637  6.785714285714286 13.977272727272728  L 6.785714285714286 11.931818181818182  C 6.785714285714286 11.647727272727272  6.8846726190476195 11.406249999999998  7.082589285714286 11.207386363636363  C 7.2805059523809526 11.008522727272728  7.520833333333334 10.90909090909091  7.803571428571428 10.90909090909091  L 11.196428571428571 10.90909090909091  C 11.479166666666668 10.90909090909091  11.71949404761905 11.008522727272728  11.917410714285715 11.207386363636363  Z M 5.131696428571428 0.2982954545454547  C 5.329613095238095 0.49715909090909005  5.428571428571428 0.738636363636363  5.428571428571428 1.0227272727272734  L 5.428571428571428 3.068181818181819  C 5.428571428571428 3.3522727272727257  5.329613095238095 3.593749999999999  5.131696428571428 3.792613636363636  C 4.933779761904763 3.991477272727271  4.693452380952381 4.090909090909091  4.410714285714286 4.090909090909091  L 1.0178571428571428 4.090909090909091  C 0.7351190476190478 4.090909090909091  0.4947916666666667 3.991477272727271  0.296875 3.792613636363636  C 0.09895833333333333 3.593749999999999  0 3.3522727272727257  0 3.068181818181819  L 0 1.0227272727272734  C 0 0.738636363636363  0.09895833333333333 0.49715909090909005  0.296875 0.2982954545454547  C 0.4947916666666667 0.09943181818181768  0.7351190476190478 0  1.0178571428571428 0  L 4.410714285714286 0  C 4.693452380952381 0  4.933779761904763 0.09943181818181768  5.131696428571428 0.2982954545454547  Z M 11.917410714285715 5.752840909090909  C 12.115327380952381 5.951704545454543  12.214285714285715 6.1931818181818175  12.214285714285715 6.477272727272727  L 12.214285714285715 8.522727272727272  C 12.214285714285715 8.806818181818182  12.115327380952381 9.048295454545453  11.917410714285715 9.24715909090909  C 11.71949404761905 9.446022727272727  11.479166666666668 9.545454545454545  11.196428571428571 9.545454545454545  L 7.803571428571428 9.545454545454545  C 7.520833333333334 9.545454545454545  7.2805059523809526 9.446022727272727  7.082589285714286 9.24715909090909  C 6.8846726190476195 9.048295454545453  6.785714285714286 8.806818181818182  6.785714285714286 8.522727272727272  L 6.785714285714286 6.477272727272727  C 6.785714285714286 6.1931818181818175  6.8846726190476195 5.951704545454543  7.082589285714286 5.752840909090909  C 7.2805059523809526 5.5539772727272725  7.520833333333334 5.454545454545455  7.803571428571428 5.454545454545455  L 11.196428571428571 5.454545454545455  C 11.479166666666668 5.454545454545455  11.71949404761905 5.5539772727272725  11.917410714285715 5.752840909090909  Z M 18.703125 11.207386363636363  C 18.901041666666668 11.406249999999998  19 11.647727272727272  19 11.931818181818182  L 19 13.977272727272728  C 19 14.261363636363637  18.901041666666668 14.502840909090908  18.703125 14.701704545454545  C 18.505208333333336 14.900568181818182  18.264880952380953 15  17.982142857142858 15  L 14.589285714285715 15  C 14.30654761904762 15  14.066220238095239 14.900568181818182  13.868303571428571 14.701704545454545  C 13.670386904761905 14.502840909090908  13.571428571428571 14.261363636363637  13.571428571428571 13.977272727272728  L 13.571428571428571 11.931818181818182  C 13.571428571428571 11.647727272727272  13.670386904761905 11.406249999999998  13.868303571428571 11.207386363636363  C 14.066220238095239 11.008522727272728  14.30654761904762 10.90909090909091  14.589285714285715 10.90909090909091  L 17.982142857142858 10.90909090909091  C 18.264880952380953 10.90909090909091  18.505208333333336 11.008522727272728  18.703125 11.207386363636363  Z M 11.917410714285715 0.2982954545454547  C 12.115327380952381 0.49715909090909005  12.214285714285715 0.738636363636363  12.214285714285715 1.0227272727272734  L 12.214285714285715 3.068181818181819  C 12.214285714285715 3.3522727272727257  12.115327380952381 3.593749999999999  11.917410714285715 3.792613636363636  C 11.71949404761905 3.991477272727271  11.479166666666668 4.090909090909091  11.196428571428571 4.090909090909091  L 7.803571428571428 4.090909090909091  C 7.520833333333334 4.090909090909091  7.2805059523809526 3.991477272727271  7.082589285714286 3.792613636363636  C 6.8846726190476195 3.593749999999999  6.785714285714286 3.3522727272727257  6.785714285714286 3.068181818181819  L 6.785714285714286 1.0227272727272734  C 6.785714285714286 0.738636363636363  6.8846726190476195 0.49715909090909005  7.082589285714286 0.2982954545454547  C 7.2805059523809526 0.09943181818181768  7.520833333333334 0  7.803571428571428 0  L 11.196428571428571 0  C 11.479166666666668 0  11.71949404761905 0.09943181818181768  11.917410714285715 0.2982954545454547  Z M 18.703125 5.752840909090909  C 18.901041666666668 5.951704545454543  19 6.1931818181818175  19 6.477272727272727  L 19 8.522727272727272  C 19 8.806818181818182  18.901041666666668 9.048295454545453  18.703125 9.24715909090909  C 18.505208333333336 9.446022727272727  18.264880952380953 9.545454545454545  17.982142857142858 9.545454545454545  L 14.589285714285715 9.545454545454545  C 14.30654761904762 9.545454545454545  14.066220238095239 9.446022727272727  13.868303571428571 9.24715909090909  C 13.670386904761905 9.048295454545453  13.571428571428571 8.806818181818182  13.571428571428571 8.522727272727272  L 13.571428571428571 6.477272727272727  C 13.571428571428571 6.1931818181818175  13.670386904761905 5.951704545454543  13.868303571428571 5.752840909090909  C 14.066220238095239 5.5539772727272725  14.30654761904762 5.454545454545455  14.589285714285715 5.454545454545455  L 17.982142857142858 5.454545454545455  C 18.264880952380953 5.454545454545455  18.505208333333336 5.5539772727272725  18.703125 5.752840909090909  Z M 18.703125 0.2982954545454547  C 18.901041666666668 0.49715909090909005  19 0.738636363636363  19 1.0227272727272734  L 19 3.068181818181819  C 19 3.3522727272727257  18.901041666666668 3.593749999999999  18.703125 3.792613636363636  C 18.505208333333336 3.991477272727271  18.264880952380953 4.090909090909091  17.982142857142858 4.090909090909091  L 14.589285714285715 4.090909090909091  C 14.30654761904762 4.090909090909091  14.066220238095239 3.991477272727271  13.868303571428571 3.792613636363636  C 13.670386904761905 3.593749999999999  13.571428571428571 3.3522727272727257  13.571428571428571 3.068181818181819  L 13.571428571428571 1.0227272727272734  C 13.571428571428571 0.738636363636363  13.670386904761905 0.49715909090909005  13.868303571428571 0.2982954545454547  C 14.066220238095239 0.09943181818181768  14.30654761904762 0  14.589285714285715 0  L 17.982142857142858 0  C 18.264880952380953 0  18.505208333333336 0.09943181818181768  18.703125 0.2982954545454547  Z " fill-rule="nonzero" fill="#000000" stroke="none" transform="matrix(1 0 0 1 1028 374 )" />
  </g>
</svg>