<?xml version="1.0" encoding="utf-8"?>
<svg version="1.1" xmlns:xlink="http://www.w3.org/1999/xlink" width="18px" height="18px" xmlns="http://www.w3.org/2000/svg">
  <g transform="matrix(1 0 0 1 -167 -169 )">
    <path d="M 11.0390625 11.0390625  C 11.987379807692308 10.090745192307692  12.461538461538462 8.94951923076923  12.461538461538462 7.615384615384617  C 12.461538461538462 6.281249999999998  11.987379807692308 5.140024038461537  11.0390625 4.191706730769231  C 10.090745192307693 3.2433894230769216  8.949519230769232 2.769230769230769  7.615384615384615 2.769230769230769  C 6.281250000000001 2.769230769230769  5.140024038461539 3.2433894230769216  4.191706730769231 4.191706730769231  C 3.2433894230769234 5.140024038461537  2.769230769230769 6.281249999999998  2.769230769230769 7.615384615384617  C 2.769230769230769 8.94951923076923  3.2433894230769234 10.090745192307692  4.191706730769231 11.0390625  C 5.140024038461539 11.987379807692305  6.281250000000001 12.461538461538462  7.615384615384615 12.461538461538462  C 8.949519230769232 12.461538461538462  10.090745192307693 11.987379807692305  11.0390625 11.0390625  Z M 17.599759615384617 15.641826923076923  C 17.86658653846154 15.908653846153847  18 16.233173076923077  18 16.615384615384617  C 18 16.990384615384617  17.86298076923077 17.314903846153847  17.588942307692307 17.588942307692307  C 17.314903846153847 17.86298076923077  16.990384615384617 18  16.615384615384617 18  C 16.22596153846154 18  15.901442307692308 17.86298076923077  15.641826923076923 17.588942307692307  L 11.931490384615383 13.889423076923077  C 10.640625 14.783653846153847  9.201923076923078 15.23076923076923  7.615384615384615 15.23076923076923  C 6.584134615384616 15.23076923076923  5.597956730769231 15.030649038461538  4.656850961538462 14.630408653846155  C 3.7157451923076925 14.23016826923077  2.9044471153846154 13.689302884615383  2.222956730769231 13.0078125  C 1.5414663461538463 12.326322115384617  1.0006009615384617 11.515024038461538  0.6003605769230769 10.57391826923077  C 0.20012019230769232 9.6328125  0 8.646634615384613  0 7.615384615384617  C 0 6.584134615384613  0.20012019230769232 5.597956730769231  0.6003605769230769 4.656850961538462  C 1.0006009615384617 3.7157451923076916  1.5414663461538463 2.9044471153846163  2.222956730769231 2.222956730769231  C 2.9044471153846154 1.541466346153847  3.7157451923076925 1.0006009615384612  4.656850961538462 0.6003605769230775  C 5.597956730769231 0.20012019230769185  6.584134615384616 0  7.615384615384615 0  C 8.646634615384615 0  9.6328125 0.20012019230769185  10.57391826923077 0.6003605769230775  C 11.515024038461538 1.0006009615384612  12.326322115384617 1.541466346153847  13.0078125 2.222956730769231  C 13.689302884615383 2.9044471153846163  14.23016826923077 3.7157451923076916  14.630408653846153 4.656850961538462  C 15.030649038461538 5.597956730769231  15.23076923076923 6.584134615384613  15.23076923076923 7.615384615384617  C 15.23076923076923 9.201923076923077  14.783653846153847 10.640624999999998  13.889423076923077 11.931490384615383  L 17.599759615384617 15.641826923076923  Z " fill-rule="nonzero" fill="#000000" stroke="none" transform="matrix(1 0 0 1 167 169 )" />
  </g>
</svg>