<?xml version="1.0" encoding="utf-8"?>
<svg version="1.1" xmlns:xlink="http://www.w3.org/1999/xlink" width="150px" height="80px" xmlns="http://www.w3.org/2000/svg">
  <g transform="matrix(1 0 0 1 0 -230 )">
    <path d="M 117.97434221912518 230.5  C 117.97434221912518 230.5  121.71405725268271 231.497257342282  121.71405725268271 231.497257342282  C 121.71405725268271 231.497257342282  149.404385876384 270  149.404385876384 270  C 149.404385876384 270  121.71405725268271 308.502742657718  121.71405725268271 308.502742657718  C 121.71405725268271 308.502742657718  117.97434221912516 309.5  117.97434221912516 309.5  C 117.97434221912516 309.5  0.49999999999997824 309.5  0.49999999999997824 309.5  C 0.49999999999997824 309.5  0.5 230.5  0.5 230.5  C 0.5 230.5  117.97434221912518 230.5  117.97434221912518 230.5  Z " fill-rule="nonzero" fill="#169bd5" stroke="none" />
    <path d="M 117.97434221912518 230.5  C 117.97434221912518 230.5  121.71405725268271 231.497257342282  121.71405725268271 231.497257342282  C 121.71405725268271 231.497257342282  149.404385876384 270  149.404385876384 270  C 149.404385876384 270  121.71405725268271 308.502742657718  121.71405725268271 308.502742657718  C 121.71405725268271 308.502742657718  117.97434221912516 309.5  117.97434221912516 309.5  C 117.97434221912516 309.5  0.49999999999997824 309.5  0.49999999999997824 309.5  C 0.49999999999997824 309.5  0.5 230.5  0.5 230.5  C 0.5 230.5  117.97434221912518 230.5  117.97434221912518 230.5  Z " stroke-width="1" stroke="#169bd5" fill="none" />
  </g>
</svg>