<?xml version="1.0" encoding="utf-8"?>
<svg version="1.1" xmlns:xlink="http://www.w3.org/1999/xlink" width="160px" height="80px" xmlns="http://www.w3.org/2000/svg">
  <g transform="matrix(1 0 0 1 -121 -230 )">
    <path d="M 248.98753882025022 230.5  C 248.98753882025022 230.5  252.71886955087191 231.43283268265543  252.71886955087191 231.43283268265543  C 252.71886955087191 231.43283268265543  280.40811788127314 270  280.40811788127314 270  C 280.40811788127314 270  252.71886955087191 308.56716731734457  252.71886955087191 308.56716731734457  C 252.71886955087191 308.56716731734457  248.98753882025017 309.5  248.98753882025017 309.5  C 248.98753882025017 309.5  121.5 309.5  121.5 309.5  C 121.5 309.5  121.5 230.5  121.5 230.5  C 121.5 230.5  248.98753882025022 230.5  248.98753882025022 230.5  Z " fill-rule="nonzero" fill="#169bd5" stroke="none" />
    <path d="M 248.98753882025022 230.5  C 248.98753882025022 230.5  252.71886955087191 231.43283268265543  252.71886955087191 231.43283268265543  C 252.71886955087191 231.43283268265543  280.40811788127314 270  280.40811788127314 270  C 280.40811788127314 270  252.71886955087191 308.56716731734457  252.71886955087191 308.56716731734457  C 252.71886955087191 308.56716731734457  248.98753882025017 309.5  248.98753882025017 309.5  C 248.98753882025017 309.5  121.5 309.5  121.5 309.5  C 121.5 309.5  121.5 230.5  121.5 230.5  C 121.5 230.5  248.98753882025022 230.5  248.98753882025022 230.5  Z " stroke-width="1" stroke="#169bd5" fill="none" />
  </g>
</svg>