<?xml version="1.0" encoding="utf-8"?>
<svg version="1.1" xmlns:xlink="http://www.w3.org/1999/xlink" width="50px" height="37px" xmlns="http://www.w3.org/2000/svg">
  <g transform="matrix(1 0 0 1 -750 -171 )">
    <path d="M 47.8125 20.61541193181818  C 49.27083333333334 22.44614109848485  50.000000000000014 24.54403409090909  50 26.90909090909091  C 50.000000000000014 29.69460227272727  49.02343750000001 32.07279829545455  47.0703125 34.04367897727273  C 45.11718750000001 36.01455965909091  42.76041666666667 37  40 37  L 11.666666666666666 37  C 8.45486111111111 37  5.707465277777779 35.848129734848484  3.424479166666667 33.54438920454545  C 1.1414930555555556 31.240648674242422  0 28.46827651515152  0 25.22727272727273  C 0 22.91477272727273  0.6163194444444444 20.799360795454547  1.8489583333333333 18.88103693181818  C 3.0815972222222223 16.96271306818182  4.704861111111112 15.530539772727275  6.71875 14.584517045454545  C 6.684027777777778 14.09398674242424  6.666666666666667 13.717329545454545  6.666666666666667 13.454545454545455  C 6.666666666666667 9.740530303030301  7.968749999999999 6.569602272727274  10.572916666666666 3.9417613636363646  C 13.177083333333334 1.313920454545455  16.319444444444446 0  20 0  C 22.743055555555554 0  25.23003472222222 0.7708333333333306  27.4609375 2.3125  C 29.691840277777782 3.854166666666661  31.319444444444443 5.8688446969696955  32.34375 8.35653409090909  C 33.55902777777778 7.270359848484846  35 6.727272727272726  36.666666666666664 6.727272727272726  C 38.50694444444444 6.727272727272726  40.078125 7.384232954545455  41.380208333333336 8.69815340909091  C 42.682291666666664 10.012073863636365  43.333333333333336 11.597537878787875  43.333333333333336 13.454545454545455  C 43.333333333333336 14.76846590909091  42.97743055555556 15.977272727272725  42.265625 17.08096590909091  C 44.50520833333334 17.60653409090909  46.35416666666667 18.784682765151512  47.8125 20.61541193181818  Z " fill-rule="nonzero" fill="#000000" stroke="none" transform="matrix(1 0 0 1 750 171 )" />
  </g>
</svg>