<?xml version="1.0" encoding="utf-8"?>
<svg version="1.1" xmlns:xlink="http://www.w3.org/1999/xlink" width="12px" height="13px" xmlns="http://www.w3.org/2000/svg">
  <g transform="matrix(1 0 0 1 -318 -483 )">
    <path d="M 324 483  C 327.36 483  330 485.86  330 489.5  C 330 493.14  327.36 496  324 496  C 320.64 496  318 493.14  318 489.5  C 318 485.86  320.64 483  324 483  Z " fill-rule="nonzero" fill="#ffffff" stroke="none" />
    <path d="M 324 483.5  C 327.08 483.5  329.5 486.14  329.5 489.5  C 329.5 492.86  327.08 495.5  324 495.5  C 320.92 495.5  318.5 492.86  318.5 489.5  C 318.5 486.14  320.92 483.5  324 483.5  Z " stroke-width="1" stroke="#ffffff" fill="none" />
  </g>
</svg>