<?xml version="1.0" encoding="utf-8"?>
<svg version="1.1" xmlns:xlink="http://www.w3.org/1999/xlink" width="15px" height="25px" xmlns="http://www.w3.org/2000/svg">
  <g transform="matrix(1 0 0 1 -200 -343 )">
    <path d="M 14.742268041237113 1.5030060120240467  C 14.91408934707904 1.670006680026717  15 1.8620574482297898  15 2.0791583166332672  C 15 2.2962591850367393  14.91408934707904 2.4883099532398116  14.742268041237113 2.655310621242485  L 4.613402061855671 12.5  L 14.742268041237113 22.344689378757515  C 14.91408934707904 22.511690046760187  15 22.703740814963258  15 22.92084168336673  C 15 23.13794255177021  14.91408934707904 23.329993319973276  14.742268041237113 23.49699398797595  L 13.45360824742268 24.749498997995993  C 13.281786941580757 24.916499665998664  13.084192439862544 25  12.86082474226804 25  C 12.63745704467354 25  12.439862542955328 24.916499665998664  12.268041237113401 24.749498997995993  L 0.2577319587628866 13.076152304609218  C 0.08591065292096225 12.909151636606545  0 12.717100868403472  0 12.5  C 0 12.282899131596526  0.08591065292096225 12.090848363393453  0.2577319587628866 11.923847695390782  L 12.268041237113401 0.25050100200400827  C 12.439862542955328 0.08350033400133516  12.63745704467354 0  12.86082474226804 0  C 13.084192439862544 0  13.281786941580757 0.08350033400133516  13.45360824742268 0.25050100200400827  L 14.742268041237113 1.5030060120240467  Z " fill-rule="nonzero" fill="#000000" stroke="none" transform="matrix(1 0 0 1 200 343 )" />
  </g>
</svg>