<?xml version="1.0" encoding="utf-8"?>
<svg version="1.1" xmlns:xlink="http://www.w3.org/1999/xlink" width="180px" height="180px" xmlns="http://www.w3.org/2000/svg">
  <g transform="matrix(1 0 0 1 -360 0 )">
    <path d="M 360 0  L 540 0  L 540 180  L 360 180  L 360 0  " fill-rule="nonzero" fill="#cccccc" stroke="none" />
    <path d="M 373 13  L 527 13  L 527 167  L 373 167  L 373 13  " fill-rule="nonzero" fill="#ffffff" stroke="none" />
    <path d="M 467.1 54  C 459.54 54  453.6 48.06  453.6 40.5  C 453.6 32.94  459.54 27  467.1 27  C 474.66 27  480.6 32.94  480.6 40.5  C 480.6 48.06  474.66 54  467.1 54  " fill-rule="nonzero" fill="#cccccc" stroke="none" />
    <path d="M 378 163  L 378 83.25  L 414.25 47  L 465 76  L 494 68.75  L 523 76  L 523 163  L 378 163  " fill-rule="nonzero" fill="#169bd5" stroke="none" />
    <path d="M 361 179  L 361 1  L 539 1  L 539 179  L 361 179  Z " stroke-width="2" stroke="#797979" fill="none" />
  </g>
</svg>