<?xml version="1.0" encoding="utf-8"?>
<svg version="1.1" xmlns:xlink="http://www.w3.org/1999/xlink" width="23px" height="40px" xmlns="http://www.w3.org/2000/svg">
  <g transform="matrix(1 0 0 1 0 -60 )">
    <path d="M 22.60481099656357 2.404809619238475  C 22.868270332187862 2.6720106880427474  23 2.9792919171676635  23 3.3266533066132276  C 23 3.6740146960587827  22.868270332187862 3.981295925183699  22.60481099656357 4.248496993987976  L 7.073883161512028 20  L 22.60481099656357 35.75150300601202  C 22.868270332187862 36.0187040748163  23 36.32598530394121  23 36.673346693386776  C 23 37.02070808283233  22.868270332187862 37.327989311957246  22.60481099656357 37.59519038076152  L 20.628865979381445 39.59919839679359  C 20.36540664375716 39.866399465597866  20.062428407789234 40  19.719931271477662 40  C 19.377434135166098 40  19.07445589919817 39.866399465597866  18.810996563573884 39.59919839679359  L 0.39518900343642616 20.921843687374746  C 0.13172966781214213 20.65464261857047  0 20.347361389445556  0 20  C 0 19.65263861055444  0.13172966781214213 19.345357381429523  0.39518900343642616 19.078156312625254  L 18.810996563573884 0.4008016032064132  C 19.07445589919817 0.13360053440213626  19.377434135166098 0  19.719931271477662 0  C 20.062428407789234 0  20.36540664375716 0.13360053440213626  20.628865979381445 0.4008016032064132  L 22.60481099656357 2.404809619238475  Z " fill-rule="nonzero" fill="#000000" stroke="none" transform="matrix(1 0 0 1 0 60 )" />
  </g>
</svg>