<?xml version="1.0" encoding="utf-8"?>
<svg version="1.1" xmlns:xlink="http://www.w3.org/1999/xlink" width="23px" height="40px" xmlns="http://www.w3.org/2000/svg">
  <g transform="matrix(1 0 0 1 -777 -60 )">
    <path d="M 22.60481099656357 19.078156312625254  C 22.868270332187862 19.345357381429523  23 19.65263861055444  23 20  C 23 20.347361389445556  22.868270332187862 20.65464261857047  22.60481099656357 20.921843687374746  L 4.189003436426117 39.59919839679359  C 3.925544100801833 39.866399465597866  3.622565864833906 40  3.2800687285223367 40  C 2.9375715922107677 40  2.634593356242841 39.866399465597866  2.3711340206185567 39.59919839679359  L 0.39518900343642616 37.59519038076152  C 0.13172966781214213 37.327989311957246  0 37.02070808283233  0 36.673346693386776  C 0 36.32598530394121  0.13172966781214213 36.0187040748163  0.39518900343642616 35.75150300601202  L 15.926116838487973 20  L 0.39518900343642616 4.248496993987976  C 0.13172966781214213 3.981295925183699  0 3.6740146960587827  0 3.3266533066132276  C 0 2.9792919171676635  0.13172966781214213 2.6720106880427474  0.39518900343642616 2.404809619238475  L 2.3711340206185567 0.4008016032064132  C 2.634593356242841 0.13360053440213626  2.9375715922107677 0  3.2800687285223367 0  C 3.622565864833906 0  3.925544100801833 0.13360053440213626  4.189003436426117 0.4008016032064132  L 22.60481099656357 19.078156312625254  Z " fill-rule="nonzero" fill="#8c8c8c" stroke="none" transform="matrix(1 0 0 1 777 60 )" />
  </g>
</svg>