<?xml version="1.0" encoding="utf-8"?>
<svg version="1.1" xmlns:xlink="http://www.w3.org/1999/xlink" width="7px" height="8px" xmlns="http://www.w3.org/2000/svg">
  <g transform="matrix(1 0 0 1 -126 -57 )">
    <path d="M 129.5 57  C 131.46 57  133 58.76  133 61  C 133 63.24  131.46 65  129.5 65  C 127.54 65  126 63.24  126 61  C 126 58.76  127.54 57  129.5 57  Z " fill-rule="nonzero" fill="#ffffff" stroke="none" />
    <path d="M 129.5 57.5  C 131.18 57.5  132.5 59.04  132.5 61  C 132.5 62.96  131.18 64.5  129.5 64.5  C 127.82 64.5  126.5 62.96  126.5 61  C 126.5 59.04  127.82 57.5  129.5 57.5  Z " stroke-width="1" stroke="#ffffff" fill="none" />
  </g>
</svg>