<?xml version="1.0" encoding="utf-8"?>
<svg version="1.1" xmlns:xlink="http://www.w3.org/1999/xlink" width="40px" height="31px" xmlns="http://www.w3.org/2000/svg">
  <g transform="matrix(1 0 0 1 -135 -681 )">
    <path d="M 32.94642857142857 16.630208333333332  C 35.74404761904762 14.100694444444443  37.142857142857146 11.705729166666666  37.142857142857146 9.4453125  C 37.142857142857146 8.35546875  36.982886904761905 7.393446180555554  36.66294642857143 6.559244791666665  C 36.343005952380956 5.725043402777773  35.933779761904766 5.062391493055554  35.435267857142854 4.5712890625  C 34.936755952380956 4.080186631944443  34.330357142857146 3.6799045138888884  33.61607142857143 3.3704427083333344  C 32.901785714285715 3.0609809027777737  32.202380952380956 2.852430555555554  31.517857142857146 2.7447916666666656  C 30.833333333333336 2.6371527777777737  30.10416666666667 2.5833333333333344  29.330357142857146 2.5833333333333344  C 28.556547619047624 2.5833333333333344  27.723214285714285 2.7548828125  26.830357142857146 3.0979817708333344  C 25.9375 3.4410807291666656  25.11532738095238 3.8716362847222197  24.363839285714285 4.3896484375  C 23.612351190476197 4.907660590277773  22.96875 5.392035590277773  22.433035714285715 5.8427734375  C 21.89732142857143 6.29351128472222  21.45089285714286 6.707248263888888  21.09375 7.083984375  C 20.82589285714286 7.379991319444443  20.461309523809526 7.527994791666665  20 7.527994791666665  C 19.538690476190478 7.527994791666665  19.174107142857142 7.379991319444443  18.90625 7.083984375  C 18.549107142857142 6.707248263888888  18.102678571428573 6.29351128472222  17.566964285714285 5.8427734375  C 17.03125 5.392035590277773  16.38764880952381 4.907660590277773  15.636160714285714 4.3896484375  C 14.88467261904762 3.8716362847222197  14.0625 3.4410807291666656  13.169642857142858 3.0979817708333344  C 12.276785714285714 2.7548828125  11.443452380952383 2.5833333333333344  10.669642857142858 2.5833333333333344  C 9.895833333333334 2.5833333333333344  9.166666666666668 2.6371527777777737  8.482142857142858 2.7447916666666656  C 7.797619047619049 2.852430555555554  7.0982142857142865 3.0609809027777737  6.383928571428571 3.3704427083333344  C 5.669642857142857 3.6799045138888884  5.0632440476190474 4.080186631944443  4.564732142857143 4.5712890625  C 4.066220238095238 5.062391493055554  3.6569940476190474 5.725043402777773  3.3370535714285716 6.559244791666665  C 3.017113095238096 7.393446180555554  2.8571428571428568 8.35546875  2.8571428571428568 9.4453125  C 2.8571428571428568 11.705729166666666  4.248511904761905 14.09396701388889  7.03125 16.610026041666668  L 20 27.912109375  L 32.94642857142857 16.630208333333332  Z M 37.16517857142857 2.5026041666666656  C 39.055059523809526 4.171006944444443  40 6.485243055555554  40 9.4453125  C 40 12.418836805555554  38.296130952380956 15.446180555555554  34.888392857142854 18.52734375  L 20.982142857142854 30.63671875  C 20.714285714285715 30.87890625  20.386904761904763 31  20 31  C 19.61309523809524 31  19.28571428571429 30.87890625  19.017857142857142 30.63671875  L 5.0892857142857135 18.486979166666668  C 4.940476190476191 18.37934027777778  4.735863095238096 18.204427083333332  4.475446428571429 17.962239583333332  C 4.215029761904762 17.720052083333332  3.802083333333334 17.279405381944446  3.2366071428571432 16.640299479166668  C 2.6711309523809526 16.001193576388886  2.1651785714285716 15.34526909722222  1.71875 14.672526041666666  C 1.2723214285714284 13.99978298611111  0.8742559523809524 13.18576388888889  0.5245535714285714 12.23046875  C 0.17485119047619047 11.275173611111107  0 10.346788194444443  0 9.4453125  C 0 6.485243055555554  0.944940476190476 4.171006944444443  2.8348214285714284 2.5026041666666656  C 4.724702380952381 0.8342013888888885  7.336309523809524 0  10.669642857142858 0  C 11.592261904761905 0  12.533482142857142 0.14463975694444253  13.493303571428573 0.4339192708333345  C 14.453125 0.7231987847222195  15.345982142857142 1.1133897569444424  16.171875 1.6044921875  C 16.99776785714286 2.095594618055554  17.708333333333336 2.556423611111108  18.303571428571427 2.9869791666666656  C 18.898809523809526 3.4175347222222197  19.464285714285715 3.875  20 4.359375  C 20.535714285714285 3.875  21.101190476190478 3.4175347222222197  21.696428571428573 2.9869791666666656  C 22.29166666666667 2.556423611111108  23.002232142857146 2.095594618055554  23.828125 1.6044921875  C 24.654017857142854 1.1133897569444424  25.546875 0.7231987847222195  26.506696428571427 0.4339192708333345  C 27.466517857142854 0.14463975694444253  28.4077380952381 0  29.330357142857146 0  C 32.66369047619048 0  35.27529761904762 0.8342013888888885  37.16517857142857 2.5026041666666656  Z " fill-rule="nonzero" fill="#fdfdfd" stroke="none" transform="matrix(1 0 0 1 135 681 )" />
  </g>
</svg>