<?xml version="1.0" encoding="utf-8"?>
<svg version="1.1" xmlns:xlink="http://www.w3.org/1999/xlink" width="14px" height="14px" viewBox="10 38  14 14" xmlns="http://www.w3.org/2000/svg">
  <path d="M 10.5 40  A 1.5 1.5 0 0 1 12 38.5 L 22 38.5  A 1.5 1.5 0 0 1 23.5 40 L 23.5 50  A 1.5 1.5 0 0 1 22 51.5 L 12 51.5  A 1.5 1.5 0 0 1 10.5 50 L 10.5 40  Z " fill-rule="nonzero" fill="#ffffff" stroke="none" />
  <path d="M 10.5 40  A 1.5 1.5 0 0 1 12 38.5 L 22 38.5  A 1.5 1.5 0 0 1 23.5 40 L 23.5 50  A 1.5 1.5 0 0 1 22 51.5 L 12 51.5  A 1.5 1.5 0 0 1 10.5 50 L 10.5 40  Z " stroke-width="1" stroke="#333333" fill="none" />
</svg>