<?xml version="1.0" encoding="utf-8"?>
<svg version="1.1" xmlns:xlink="http://www.w3.org/1999/xlink" width="16px" height="13px" xmlns="http://www.w3.org/2000/svg">
  <g transform="matrix(1 0 0 1 -20 -24 )">
    <path d="M 15.802083333333334 10.592968749999999  C 15.934027777777777 10.721614583333334  16 10.873958333333334  16 11.049999999999999  L 16 12.35  C 16 12.526041666666666  15.934027777777777 12.678385416666666  15.802083333333334 12.80703125  C 15.670138888888891 12.935677083333335  15.513888888888891 13  15.333333333333334 13  L 0.6666666666666666 13  C 0.48611111111111116 13  0.3298611111111111 12.935677083333335  0.19791666666666666 12.80703125  C 0.06597222222222222 12.678385416666666  0 12.526041666666666  0 12.35  L 0 11.049999999999999  C 0 10.873958333333334  0.06597222222222222 10.721614583333334  0.19791666666666666 10.592968749999999  C 0.3298611111111111 10.464322916666667  0.48611111111111116 10.4  0.6666666666666666 10.4  L 15.333333333333334 10.4  C 15.513888888888891 10.4  15.670138888888891 10.464322916666667  15.802083333333334 10.592968749999999  Z M 15.802083333333334 5.39296875  C 15.934027777777777 5.521614583333332  16 5.673958333333332  16 5.85  L 16 7.15  C 16 7.326041666666666  15.934027777777777 7.478385416666666  15.802083333333334 7.60703125  C 15.670138888888891 7.735677083333332  15.513888888888891 7.8  15.333333333333334 7.8  L 0.6666666666666666 7.8  C 0.48611111111111116 7.8  0.3298611111111111 7.735677083333332  0.19791666666666666 7.60703125  C 0.06597222222222222 7.478385416666666  0 7.326041666666666  0 7.15  L 0 5.85  C 0 5.673958333333332  0.06597222222222222 5.521614583333332  0.19791666666666666 5.39296875  C 0.3298611111111111 5.264322916666668  0.48611111111111116 5.2  0.6666666666666666 5.2  L 15.333333333333334 5.2  C 15.513888888888891 5.2  15.670138888888891 5.264322916666668  15.802083333333334 5.39296875  Z M 15.802083333333334 0.19296875000000058  C 15.934027777777777 0.32161458333333237  16 0.47395833333333237  16 0.6500000000000006  L 16 1.9500000000000002  C 16 2.1260416666666657  15.934027777777777 2.2783854166666657  15.802083333333334 2.40703125  C 15.670138888888891 2.535677083333332  15.513888888888891 2.5999999999999996  15.333333333333334 2.5999999999999996  L 0.6666666666666666 2.5999999999999996  C 0.48611111111111116 2.5999999999999996  0.3298611111111111 2.535677083333332  0.19791666666666666 2.40703125  C 0.06597222222222222 2.2783854166666657  0 2.1260416666666657  0 1.9500000000000002  L 0 0.6500000000000006  C 0 0.47395833333333237  0.06597222222222222 0.32161458333333237  0.19791666666666666 0.19296875000000058  C 0.3298611111111111 0.0643229166666659  0.48611111111111116 0  0.6666666666666666 0  L 15.333333333333334 0  C 15.513888888888891 0  15.670138888888891 0.0643229166666659  15.802083333333334 0.19296875000000058  Z " fill-rule="nonzero" fill="#000000" stroke="none" transform="matrix(1 0 0 1 20 24 )" />
  </g>
</svg>