<?xml version="1.0" encoding="utf-8"?>
<svg version="1.1" xmlns:xlink="http://www.w3.org/1999/xlink" width="100px" height="60px" xmlns="http://www.w3.org/2000/svg">
  <g transform="matrix(1 0 0 1 -709 -1067 )">
    <path d="M 709 1067  L 809 1067  L 809 1127  L 709 1127  L 709 1067  " fill-rule="nonzero" fill="#cccccc" stroke="none" />
    <path d="M 713 1071  L 805 1071  L 805 1123  L 713 1123  L 713 1071  " fill-rule="nonzero" fill="#ffffff" stroke="none" />
    <path d="M 765.5 1085  C 762.98 1085  761 1083.02  761 1080.5  C 761 1077.98  762.98 1076  765.5 1076  C 768.02 1076  770 1077.98  770 1080.5  C 770 1083.02  768.02 1085  765.5 1085  " fill-rule="nonzero" fill="#cccccc" stroke="none" />
    <path d="M 715 1122  L 715 1095.05  L 737.25 1082.8  L 768.4 1104.36  L 786.2 1090.15  L 804 1104.36  L 804 1122  L 715 1122  " fill-rule="nonzero" fill="#169bd5" stroke="none" />
    <path d="M 709.5 1126.5  L 709.5 1067.5  L 808.5 1067.5  L 808.5 1126.5  L 709.5 1126.5  Z " stroke-width="1" stroke="#797979" fill="none" />
  </g>
</svg>