<?xml version="1.0" encoding="utf-8"?>
<svg version="1.1" xmlns:xlink="http://www.w3.org/1999/xlink" width="76px" height="76px" xmlns="http://www.w3.org/2000/svg">
  <g transform="matrix(1 0 0 1 -1725 -1085 )">
    <path d="M 23.24107142857143 3.011160714285713  C 27.93452380952381 1.0037202380952377  32.85416666666667 0  38 0  C 43.145833333333336 0  48.0654761904762 1.0037202380952377  52.75892857142858 3.011160714285713  C 57.452380952380956 5.018601190476188  61.495535714285715 7.71875  64.88839285714286 11.111607142857139  C 68.28125000000001 14.504464285714286  70.98139880952382 18.54761904761904  72.98883928571429 23.241071428571427  C 74.99627976190477 27.934523809523803  76 32.854166666666664  76 38  C 76 43.117559523809526  75.00334821428571 48.023065476190474  73.01004464285714 52.716517857142854  C 71.01674107142857 57.40997023809525  68.32366071428571 61.453125  64.93080357142857 64.84598214285715  C 61.53794642857142 68.23883928571429  57.49479166666667 70.94605654761904  52.801339285714285 72.96763392857143  C 48.10788690476191 74.98921130952381  43.17410714285714 76  38 76  C 32.825892857142854 76  27.8921130952381 74.99627976190476  23.19866071428571 72.98883928571429  C 18.505208333333336 70.98139880952381  14.469122023809526 68.27418154761904  11.090401785714285 64.8671875  C 7.7116815476190474 61.46019345238095  5.018601190476191 57.41703869047619  3.011160714285714 52.737723214285715  C 1.003720238095238 48.05840773809523  0 43.14583333333333  0 38  C 0 32.854166666666664  1.003720238095238 27.934523809523803  3.011160714285714 23.241071428571427  C 5.018601190476191 18.54761904761904  7.71875 14.504464285714286  11.111607142857144 11.111607142857139  C 14.504464285714285 7.71875  18.54761904761905 5.018601190476188  23.24107142857143 3.011160714285713  Z M 51.27455357142858 43.42857142857142  C 58.06026785714286 43.42857142857142  62.386160714285715 48.051339285714285  64.25223214285714 57.296875  C 68.46502976190477 51.50074404761905  70.57142857142857 45.06845238095238  70.57142857142857 38  C 70.57142857142857 33.589285714285715  69.70907738095238 29.37648809523809  67.984375 25.36160714285714  C 66.25967261904762 21.34672619047619  63.941220238095255 17.883184523809515  61.02901785714286 14.970982142857139  C 58.11681547619048 12.058779761904763  54.65327380952381 9.740327380952376  50.63839285714286 8.015625  C 46.62351190476191 6.290922619047615  42.410714285714285 5.428571428571426  38 5.428571428571426  C 33.589285714285715 5.428571428571426  29.3764880952381 6.290922619047615  25.361607142857142 8.015625  C 21.346726190476193 9.740327380952376  17.883184523809526 12.058779761904763  14.970982142857144 14.970982142857139  C 12.058779761904765 17.883184523809515  9.740327380952381 21.34672619047619  8.015625 25.36160714285714  C 6.2909226190476195 29.37648809523809  5.428571428571428 33.589285714285715  5.428571428571428 38  C 5.428571428571428 45.06845238095238  7.534970238095239 51.50074404761905  11.747767857142856 57.296875  C 13.613839285714285 48.051339285714285  17.939732142857142 43.42857142857142  24.72544642857143 43.42857142857142  C 28.429315476190478 47.04761904761905  32.85416666666667 48.857142857142854  38 48.857142857142854  C 43.145833333333336 48.857142857142854  47.570684523809526 47.04761904761905  51.27455357142858 43.42857142857142  Z M 49.51450892857142 41.371651785714285  C 52.6953125 38.190848214285715  54.285714285714285 34.35267857142858  54.285714285714285 29.85714285714286  C 54.285714285714285 25.36160714285714  52.6953125 21.5234375  49.51450892857142 18.342633928571427  C 46.33370535714286 15.161830357142861  42.495535714285715 13.571428571428573  38 13.571428571428573  C 33.504464285714285 13.571428571428573  29.666294642857142 15.161830357142861  26.48549107142857 18.342633928571427  C 23.3046875 21.5234375  21.71428571428571 25.36160714285714  21.71428571428571 29.85714285714286  C 21.71428571428571 34.35267857142858  23.3046875 38.190848214285715  26.48549107142857 41.371651785714285  C 29.666294642857142 44.552455357142854  33.504464285714285 46.142857142857146  38 46.142857142857146  C 42.495535714285715 46.142857142857146  46.33370535714286 44.552455357142854  49.51450892857142 41.371651785714285  Z " fill-rule="nonzero" fill="#e4e4e4" stroke="none" transform="matrix(1 0 0 1 1725 1085 )" />
  </g>
</svg>