<?xml version="1.0" encoding="utf-8"?>
<svg version="1.1" xmlns:xlink="http://www.w3.org/1999/xlink" width="40px" height="11px" xmlns="http://www.w3.org/2000/svg">
  <g transform="matrix(1 0 0 1 -180 -726 )">
    <path d="M 10.113636363636365 0.8020833333333329  C 10.643939393939393 1.336805555555551  10.909090909090908 1.986111111111109  10.909090909090908 2.75  L 10.909090909090908 8.25  C 10.909090909090908 9.013888888888888  10.643939393939393 9.663194444444441  10.113636363636365 10.197916666666668  C 9.583333333333336 10.732638888888888  8.939393939393941 11  8.181818181818182 11  L 2.727272727272727 11  C 1.96969696969697 11  1.325757575757576 10.732638888888888  0.7954545454545454 10.197916666666668  C 0.26515151515151514 9.663194444444441  0 9.013888888888888  0 8.25  L 0 2.75  C 0 1.986111111111109  0.26515151515151514 1.336805555555551  0.7954545454545454 0.8020833333333329  C 1.325757575757576 0.26736111111110894  1.96969696969697 0  2.727272727272727 0  L 8.181818181818182 0  C 8.939393939393941 0  9.583333333333336 0.26736111111110894  10.113636363636365 0.8020833333333329  Z M 24.659090909090907 0.8020833333333329  C 25.18939393939394 1.336805555555551  25.454545454545453 1.986111111111109  25.454545454545453 2.75  L 25.454545454545453 8.25  C 25.454545454545453 9.013888888888888  25.18939393939394 9.663194444444441  24.659090909090907 10.197916666666668  C 24.128787878787886 10.732638888888888  23.484848484848484 11  22.72727272727273 11  L 17.272727272727273 11  C 16.515151515151516 11  15.871212121212125 10.732638888888888  15.340909090909092 10.197916666666668  C 14.810606060606062 9.663194444444441  14.545454545454547 9.013888888888888  14.545454545454547 8.25  L 14.545454545454547 2.75  C 14.545454545454547 1.986111111111109  14.810606060606062 1.336805555555551  15.340909090909092 0.8020833333333329  C 15.871212121212125 0.26736111111110894  16.515151515151516 0  17.272727272727273 0  L 22.72727272727273 0  C 23.484848484848484 0  24.128787878787886 0.26736111111110894  24.659090909090907 0.8020833333333329  Z M 39.20454545454545 0.8020833333333329  C 39.734848484848484 1.336805555555551  40 1.986111111111109  40 2.75  L 40 8.25  C 40 9.013888888888888  39.734848484848484 9.663194444444441  39.20454545454545 10.197916666666668  C 38.67424242424243 10.732638888888888  38.03030303030303 11  37.27272727272727 11  L 31.818181818181817 11  C 31.060606060606062 11  30.41666666666667 10.732638888888888  29.886363636363637 10.197916666666668  C 29.35606060606061 9.663194444444441  29.090909090909093 9.013888888888888  29.090909090909093 8.25  L 29.090909090909093 2.75  C 29.090909090909093 1.986111111111109  29.35606060606061 1.336805555555551  29.886363636363637 0.8020833333333329  C 30.41666666666667 0.26736111111110894  31.060606060606062 0  31.818181818181817 0  L 37.27272727272727 0  C 38.03030303030303 0  38.67424242424243 0.26736111111110894  39.20454545454545 0.8020833333333329  Z " fill-rule="nonzero" fill="#000000" stroke="none" transform="matrix(1 0 0 1 180 726 )" />
  </g>
</svg>