<?xml version="1.0" encoding="utf-8"?>
<svg version="1.1" xmlns:xlink="http://www.w3.org/1999/xlink" width="20px" height="16px" xmlns="http://www.w3.org/2000/svg">
  <g transform="matrix(1 0 0 1 -860 -485 )">
    <path d="M 19.717935071846725 8.875  C 19.905978357282244 8.973484848484848  20 9.136363636363637  20 9.363636363636363  C 20 9.598484848484848  19.89001241795281 9.848484848484848  19.670037253858435 10.113636363636363  L 16.093666844065993 14.613636363636363  C 15.788540003547988 15  15.361007628171013 15.327651515151514  14.811069717935073 15.596590909090908  C 14.261131807699133 15.865530303030305  13.75199574241618 16  13.283661522086216 16  L 1.7030335284725917 16  C 1.461770445272308 16  1.2471172609544086 15.950757575757576  1.059073975518893 15.852272727272727  C 0.8710306900833777 15.753787878787877  0.77700904736562 15.590909090909092  0.77700904736562 15.363636363636363  C 0.77700904736562 15.128787878787877  0.8869966294128083 14.878787878787879  1.1069717935071846 14.613636363636363  L 4.6833422032996275 10.113636363636363  C 4.988469043817634 9.727272727272727  5.4160014191946075 9.399621212121211  5.965939329430548 9.130681818181818  C 6.51587723966649 8.861742424242422  7.025013304949441 8.727272727272727  7.493347525279404 8.727272727272727  L 19.07397551889303 8.727272727272727  C 19.315238602093313 8.727272727272727  19.529891786411213 8.77651515151515  19.717935071846725 8.875  Z M 15.646620542841937 3.6590909090909083  C 16.1149547631719 4.159090909090908  16.34912187333688 4.757575757575756  16.34912187333688 5.454545454545455  L 16.34912187333688 7.272727272727273  L 7.493347525279404 7.272727272727273  C 6.826326059960972 7.272727272727273  6.12737271598368 7.452651515151516  5.396487493347525 7.8125  C 4.665602270711371 8.172348484848484  4.083732481816569 8.625  3.6508781266631187 9.170454545454547  L 0.06386375731772219 13.670454545454545  L 0.010643959552953698 13.738636363636363  C 0.010643959552953698 13.708333333333332  0.008869966294128083 13.66098484848485  0.005321979776476849 13.59659090909091  C 0.0017739932588256165 13.532196969696969  0 13.484848484848486  0 13.454545454545455  L 0 2.545454545454545  C 0 1.848484848484846  0.23416711016498137 1.25  0.7025013304949441 0.75  C 1.170835550824907 0.25  1.731417420613802 0  2.3842469398616286 0  L 5.790313996806812 0  C 6.443143516054639 0  7.003725385843533 0.25  7.472059606173497 0.75  C 7.940393826503459 1.25  8.17456093666844 1.848484848484846  8.17456093666844 2.545454545454545  L 8.17456093666844 2.9090909090909083  L 13.964874933475253 2.9090909090909083  C 14.617704452723082 2.9090909090909083  15.178286322511973 3.1590909090909083  15.646620542841937 3.6590909090909083  Z " fill-rule="nonzero" fill="#000000" stroke="none" transform="matrix(1 0 0 1 860 485 )" />
  </g>
</svg>