<?xml version="1.0" encoding="utf-8"?>
<svg version="1.1" xmlns:xlink="http://www.w3.org/1999/xlink" width="50px" height="46px" xmlns="http://www.w3.org/2000/svg">
  <g transform="matrix(1 0 0 1 -958 -557 )">
    <path d="M 37.890625 41.59765625  C 38.27123397435898 41.21831597222222  38.46153846153847 40.76909722222222  38.46153846153847 40.25  C 38.46153846153847 39.73090277777778  38.27123397435898 39.28168402777778  37.890625 38.90234375  C 37.51001602564103 38.52300347222222  37.059294871794876 38.333333333333336  36.53846153846153 38.333333333333336  C 36.017628205128204 38.333333333333336  35.56690705128205 38.52300347222222  35.18629807692308 38.90234375  C 34.80568910256411 39.28168402777778  34.61538461538461 39.73090277777778  34.61538461538461 40.25  C 34.61538461538461 40.76909722222222  34.80568910256411 41.21831597222222  35.18629807692308 41.59765625  C 35.56690705128205 41.97699652777778  36.017628205128204 42.166666666666664  36.53846153846153 42.166666666666664  C 37.059294871794876 42.166666666666664  37.51001602564103 41.97699652777778  37.890625 41.59765625  Z M 45.58293269230769 41.59765625  C 45.963541666666664 41.21831597222222  46.15384615384615 40.76909722222222  46.15384615384615 40.25  C 46.15384615384615 39.73090277777778  45.963541666666664 39.28168402777778  45.58293269230769 38.90234375  C 45.20232371794872 38.52300347222222  44.75160256410257 38.333333333333336  44.230769230769226 38.333333333333336  C 43.7099358974359 38.333333333333336  43.259214743589745 38.52300347222222  42.878605769230774 38.90234375  C 42.4979967948718 39.28168402777778  42.30769230769231 39.73090277777778  42.30769230769231 40.25  C 42.30769230769231 40.76909722222222  42.4979967948718 41.21831597222222  42.878605769230774 41.59765625  C 43.259214743589745 41.97699652777778  43.7099358974359 42.166666666666664  44.230769230769226 42.166666666666664  C 44.75160256410257 42.166666666666664  45.20232371794872 41.97699652777778  45.58293269230769 41.59765625  Z M 49.15865384615385 31.50520833333333  C 49.719551282051285 32.0642361111111  50 32.74305555555556  50 33.54166666666667  L 50 43.125  C 50 43.923611111111114  49.719551282051285 44.60243055555555  49.15865384615385 45.161458333333336  C 48.597756410256416 45.720486111111114  47.91666666666667 46  47.11538461538461 46  L 2.8846153846153846 46  C 2.0833333333333335 46  1.4022435897435899 45.720486111111114  0.8413461538461539 45.161458333333336  C 0.2804487179487179 44.60243055555555  0 43.923611111111114  0 43.125  L 0 33.54166666666667  C 0 32.74305555555556  0.2804487179487179 32.0642361111111  0.8413461538461539 31.50520833333333  C 1.4022435897435899 30.946180555555557  2.0833333333333335 30.66666666666667  2.8846153846153846 30  L 16.856971153846153 30  L 20.91346153846154 34.739583333333336  C 22.075320512820515 35.857638888888886  23.4375 36.416666666666664  25 36.416666666666664  C 26.5625 36.416666666666664  27.92467948717949 35.857638888888886  29.086538461538463 34.739583333333336  L 33.17307692307692 30  L 47.11538461538461 30  C 47.91666666666667 30.66666666666667  48.597756410256416 30.946180555555557  49.15865384615385 31.50520833333333  Z M 38.46153846153847 15.333333333333336  C 39.30288461538461 15.333333333333336  39.89383012820513 15.72265625  40.234375 16.501302083333336  C 40.574919871794876 17.31987847222222  40.43469551282052 18.018663194444443  39.81370192307692 18.59765625  L 26.352163461538463 32.01432291666667  C 25.991586538461537 32.39366319444444  25.540865384615387 32.58333333333333  25 32.58333333333333  C 24.459134615384613 32.58333333333333  24.00841346153846 32.39366319444444  23.64783653846154 32.01432291666667  L 10.186298076923077 18.59765625  C 9.565304487179487 18.018663194444443  9.42508012820513 17.31987847222222  9.765625 16.501302083333336  C 10.106169871794874 15.72265625  10.697115384615383 15.333333333333336  11.538461538461538 15.333333333333336  L 20 15.333333333333336  L 20 1.916666666666665  C 19.230769230769234 1.3975694444444382  19.42107371794872 0.9483506944444382  19.801682692307693 0.569010416666665  C 20.182291666666668 0.18967013888889173  20.63301282051282 0  21.153846153846153 0  L 28.846153846153843 0  C 29.366987179487182 0  29.817708333333336 0.18967013888889173  30.198317307692307 0.569010416666665  C 30.578926282051285 0.9483506944444382  30.76923076923077 1.3975694444444382  30 1.916666666666665  L 30 15.333333333333336  L 38.46153846153847 15.333333333333336  Z " fill-rule="nonzero" fill="#fdfdfd" stroke="none" transform="matrix(1 0 0 1 958 557 )" />
  </g>
</svg>