<?xml version="1.0" encoding="utf-8"?>
<svg version="1.1" xmlns:xlink="http://www.w3.org/1999/xlink" width="25px" height="23px" xmlns="http://www.w3.org/2000/svg">
  <g transform="matrix(1 0 0 1 -416 -627 )">
    <path d="M 0 4.928571428571429  L 12.5 0  L 25 4.928571428571429  L 25 6.571428571428571  L 23.333333333333332 6.571428571428571  C 23.333333333333332 6.793898809523809  23.24435763888889 6.9864211309523805  23.06640625 7.1489955357142865  C 22.888454861111114 7.311569940476188  22.67795138888889 7.392857142857142  22.434895833333332 7.392857142857142  L 2.5651041666666665 7.392857142857142  C 2.322048611111111 7.392857142857142  2.111545138888889 7.311569940476188  1.93359375 7.1489955357142865  C 1.7556423611111112 6.9864211309523805  1.6666666666666667 6.793898809523809  1.6666666666666667 6.571428571428571  L 0 6.571428571428571  L 0 4.928571428571429  Z M 3.3333333333333335 18.07142857142857  L 3.3333333333333335 8.214285714285714  L 6.666666666666667 8.214285714285714  L 6.666666666666667 18.07142857142857  L 8.333333333333332 18.07142857142857  L 8.333333333333332 8.214285714285714  L 11.666666666666666 8.214285714285714  L 11.666666666666666 18.07142857142857  L 13.333333333333334 18.07142857142857  L 13.333333333333334 8.214285714285714  L 16.666666666666664 8.214285714285714  L 16.666666666666664 18.07142857142857  L 18.333333333333332 18.07142857142857  L 18.333333333333332 8.214285714285714  L 21.666666666666668 8.214285714285714  L 21.666666666666668 18.07142857142857  L 22.434895833333332 18.07142857142857  C 22.67795138888889 18.07142857142857  22.888454861111114 18.152715773809522  23.06640625 18.31529017857143  C 23.24435763888889 18.477864583333336  23.333333333333332 18.670386904761905  23.333333333333332 18.892857142857142  L 23.333333333333332 19.714285714285715  L 1.6666666666666667 19.714285714285715  L 1.6666666666666667 18.892857142857142  C 1.6666666666666667 18.670386904761905  1.7556423611111112 18.477864583333336  1.93359375 18.31529017857143  C 2.111545138888889 18.152715773809522  2.322048611111111 18.07142857142857  2.5651041666666665 18.07142857142857  L 3.3333333333333335 18.07142857142857  Z M 0.8984374999999999 20.53571428571429  L 24.1015625 20.53571428571429  C 24.344618055555557 20.53571428571429  24.55512152777778 20.617001488095237  24.733072916666668 20.779575892857142  C 24.91102430555556 20.942150297619047  25.000000000000007 21.13467261904762  25 21.357142857142858  L 25 23  L 0 23  L 0 21.357142857142858  C 0 21.13467261904762  0.08897569444444445 20.942150297619047  0.2669270833333333 20.779575892857142  C 0.44487847222222227 20.617001488095237  0.6553819444444444 20.53571428571429  0.8984374999999999 20.53571428571429  Z " fill-rule="nonzero" fill="#fdfdfd" stroke="none" transform="matrix(1 0 0 1 416 627 )" />
  </g>
</svg>