<?xml version="1.0" encoding="utf-8"?>
<svg version="1.1" xmlns:xlink="http://www.w3.org/1999/xlink" width="316px" height="147px" xmlns="http://www.w3.org/2000/svg">
  <defs>
    <mask fill="white" id="clip83">
      <path d="M 38 156  L 38 14  C 38 11.225000000000001  40.225 9  43 9  L 349 9  C 351.775 9  354 11.225000000000001  354 14  L 354 156  " fill-rule="evenodd" />
    </mask>
  </defs>
  <g transform="matrix(1 0 0 1 -38 -9 )">
    <path d="M 38 9  L 354 9  L 354 156  L 38 156  L 38 9  " fill-rule="nonzero" fill="#cccccc" stroke="none" mask="url(#clip83)" />
    <path d="M 48 19  L 344 19  L 344 146  L 48 146  L 48 19  " fill-rule="nonzero" fill="#ffffff" stroke="none" mask="url(#clip83)" />
    <path d="M 213.345 53.1  C 207.171 53.1  202.32 48.249  202.32 42.075  C 202.32 35.901  207.171 31.05  213.345 31.05  C 219.519 31.05  224.37 35.901  224.37 42.075  C 224.37 48.249  219.519 53.1  213.345 53.1  " fill-rule="nonzero" fill="#cccccc" stroke="none" mask="url(#clip83)" />
    <path d="M 52 143  L 52 77  L 124.25 47  L 225.4 109.50632911392405  L 283.20000000000005 65  L 341 109.50632911392405  L 341 143  L 52 143  " fill-rule="nonzero" fill="#169bd5" stroke="none" mask="url(#clip83)" />
  </g>
</svg>