<?xml version="1.0" encoding="utf-8"?>
<svg version="1.1" xmlns:xlink="http://www.w3.org/1999/xlink" width="14px" height="14px" viewBox="10 13  14 14" xmlns="http://www.w3.org/2000/svg">
  <path d="M 10.5 15  A 1.5 1.5 0 0 1 12 13.5 L 22 13.5  A 1.5 1.5 0 0 1 23.5 15 L 23.5 25  A 1.5 1.5 0 0 1 22 26.5 L 12 26.5  A 1.5 1.5 0 0 1 10.5 25 L 10.5 15  Z " fill-rule="nonzero" fill="#ffffff" stroke="none" />
  <path d="M 10.5 15  A 1.5 1.5 0 0 1 12 13.5 L 22 13.5  A 1.5 1.5 0 0 1 23.5 15 L 23.5 25  A 1.5 1.5 0 0 1 22 26.5 L 12 26.5  A 1.5 1.5 0 0 1 10.5 25 L 10.5 15  Z " stroke-width="1" stroke="#c2c2c2" fill="none" />
</svg>