<?xml version="1.0" encoding="utf-8"?>
<svg version="1.1" xmlns:xlink="http://www.w3.org/1999/xlink" width="350px" height="80px" xmlns="http://www.w3.org/2000/svg">
  <g transform="matrix(1 0 0 1 -425 -40 )">
    <path d="M 743.2382742416254 40.5  C 743.2382742416254 40.5  746.7656564457432 40.903129394756306  746.7656564457432 40.903129394756306  C 746.7656564457432 40.903129394756306  774.4498567298028 80  774.4498567298028 80  C 774.4498567298028 80  746.7656564457432 119.0968706052437  746.7656564457432 119.0968706052437  C 746.7656564457432 119.0968706052437  743.2382742416253 119.5  743.2382742416253 119.5  C 743.2382742416253 119.5  425.5 119.5  425.5 119.5  C 425.5 119.5  425.5 40.5  425.5 40.5  C 425.5 40.5  743.2382742416254 40.5  743.2382742416254 40.5  Z " fill-rule="nonzero" fill="#ffffff" stroke="none" />
    <path d="M 743.2382742416254 40.5  C 743.2382742416254 40.5  746.7656564457432 40.903129394756306  746.7656564457432 40.903129394756306  C 746.7656564457432 40.903129394756306  774.4498567298028 80  774.4498567298028 80  C 774.4498567298028 80  746.7656564457432 119.0968706052437  746.7656564457432 119.0968706052437  C 746.7656564457432 119.0968706052437  743.2382742416253 119.5  743.2382742416253 119.5  C 743.2382742416253 119.5  425.5 119.5  425.5 119.5  C 425.5 119.5  425.5 40.5  425.5 40.5  C 425.5 40.5  743.2382742416254 40.5  743.2382742416254 40.5  Z " stroke-width="1" stroke="#8c8c8c" fill="none" />
  </g>
</svg>