<?xml version="1.0" encoding="utf-8"?>
<svg version="1.1" xmlns:xlink="http://www.w3.org/1999/xlink" width="19px" height="17px" xmlns="http://www.w3.org/2000/svg">
  <g transform="matrix(1 0 0 1 -339 -57 )">
    <path d="M 7.540691192865106 4.843650793650793  L 7.540691192865106 11.63015873015873  L 12.666666666666666 8.257142857142858  L 7.540691192865106 4.843650793650793  Z M 2.859531772575251 0.242857142857142  C 4.63173541434411 0.08095238095238066  6.845224823485692 0  9.5 0  C 10.686176142697882 0  11.831753994797474 0.020238095238095166  12.936733556298774 0.0607142857142855  C 14.041713117800077 0.10119047619047583  14.851913786696397 0.14391534391534277  15.367335562987737 0.18888888888888822  L 16.140468227424748 0.242857142857142  C 16.147528799702712 0.242857142857142  16.207543664065405 0.24960317460317372  16.32051282051282 0.26309523809523716  C 16.433481976960238 0.2765873015873025  16.51467855815682 0.29007936507936594  16.564102564102566 0.3035714285714294  C 16.613526570048307 0.3170634920634928  16.69648829431438 0.337301587301588  16.81298773690078 0.3642857142857149  C 16.92948717948718 0.39126984126984177  17.03010033444816 0.4272486772486751  17.114827201783726 0.47222222222222243  C 17.199554069119287 0.517195767195766  17.298402081010778 0.575661375661373  17.411371237458194 0.6476190476190472  C 17.524340393905614 0.7195767195767176  17.63377926421405 0.8072751322751319  17.7396878483835 0.9107142857142863  C 17.845596432552956 1.0141534391534368  17.94797473058343 1.133333333333333  18.046822742474916 1.2682539682539675  C 18.089186176142697 1.3222222222222213  18.143905611296915 1.4054232804232787  18.21098104793757 1.5178571428571432  C 18.278056484578226 1.6302910052910038  18.380434782608695 1.893386243386243  18.518115942028984 2.3071428571428565  C 18.655797101449277 2.720899470899468  18.749349684132294 3.175132275132274  18.798773690078036 3.66984126984127  C 18.85525826830175 4.245502645502645  18.89938684503902 4.859391534391533  18.931159420289855 5.511507936507936  C 18.962931995540693 6.163624338624338  18.982348569305092 6.674074074074072  18.989409141583053 7.042857142857143  L 18.989409141583053 7.582539682539682  L 18.989409141583053 9.417460317460318  C 18.996469713861018 10.721693121693118  18.932924563359347 12.025925925925925  18.798773690078036 13.33015873015873  C 18.749349684132294 13.824867724867726  18.66109253065775 14.272354497354497  18.534002229654405 14.672619047619047  C 18.406911928651063 15.072883597883598  18.293942772203643 15.349470899470901  18.195094760312152 15.502380952380951  L 18.046822742474916 15.731746031746033  C 17.94797473058343 15.866666666666667  17.845596432552956 15.985846560846559  17.7396878483835 16.089285714285715  C 17.63377926421405 16.19272486772487  17.524340393905614 16.278174603174605  17.411371237458194 16.34563492063492  C 17.298402081010778 16.413095238095238  17.199554069119287 16.469312169312172  17.114827201783726 16.514285714285712  C 17.03010033444816 16.559259259259257  16.92948717948718 16.595238095238095  16.81298773690078 16.62222222222222  C 16.69648829431438 16.64920634920635  16.611761426978816 16.669444444444444  16.558807134894092 16.682936507936507  C 16.505852842809364 16.69642857142857  16.424656261612785 16.709920634920636  16.315217391304348 16.723412698412698  C 16.205778520995914 16.736904761904764  16.147528799702712 16.743650793650794  16.140468227424748 16.743650793650794  C 14.36826458565589 16.914550264550265  12.154775176514306 17  9.5 17  C 8.038461538461538 16.982010582010584  6.769323671497585 16.95277777777778  5.692586399108138 16.912301587301588  C 4.615849126718692 16.871825396825397  3.908026755852843 16.83809523809524  3.569119286510591 16.81111111111111  L 3.0501672240802677 16.75714285714286  L 2.668896321070234 16.703174603174602  C 2.4147157190635453 16.65820105820106  2.222315124489038 16.61322751322751  2.0916945373467115 16.568253968253966  C 1.961073950204385 16.523280423280426  1.7810293571163138 16.42883597883598  1.551560758082497 16.284920634920635  C 1.3220921590486807 16.14100529100529  1.1226309921962097 15.956613756613757  0.9531772575250836 15.731746031746033  C 0.9108138238573021 15.677777777777779  0.8560943887030844 15.59457671957672  0.7890189520624303 15.482142857142858  C 0.7219435154217764 15.369708994708995  0.6195652173913043 15.106613756613758  0.4818840579710145 14.692857142857143  C 0.34420289855072467 14.279100529100528  0.2506503158677072 13.824867724867726  0.2012263099219621 13.33015873015873  C 0.14474173169825344 12.754497354497353  0.10061315496098107 12.140608465608464  0.06884057971014493 11.488492063492064  C 0.03706800445930881 10.836375661375659  0.017651430694908956 10.325925925925926  0.010590858416945374 9.957142857142856  L 0.010590858416945374 9.417460317460318  L 0.010590858416945374 7.582539682539682  C 0.00353028613898179 6.278306878306878  0.06707543664065403 4.974074074074073  0.2012263099219621 3.66984126984127  C 0.2506503158677072 3.175132275132274  0.33890746934225197 2.7276455026454998  0.4659977703455964 2.3273809523809517  C 0.5930880713489409 1.9271164021164016  0.7060572277963583 1.650529100529099  0.8049052396878484 1.497619047619048  L 0.9531772575250836 1.2682539682539675  C 1.052025269416574 1.133333333333333  1.1544035674470456 1.0141534391534368  1.2603121516164995 0.9107142857142863  C 1.366220735785953 0.8072751322751319  1.4756596060943887 0.7195767195767176  1.588628762541806 0.6476190476190472  C 1.7015979189892236 0.575661375661373  1.8004459308807135 0.517195767195766  1.8851727982162765 0.47222222222222243  C 1.9698996655518395 0.4272486772486751  2.0705128205128207 0.39126984126984177  2.1870122630992195 0.3642857142857149  C 2.303511705685619 0.337301587301588  2.386473429951691 0.3170634920634928  2.4358974358974357 0.3035714285714294  C 2.485321441843181 0.29007936507936594  2.5665180230397624 0.2765873015873025  2.6794871794871793 0.26309523809523716  C 2.792456335934597 0.24960317460317372  2.852471200297288 0.242857142857142  2.859531772575251 0.242857142857142  Z " fill-rule="nonzero" fill="#999999" stroke="none" transform="matrix(1 0 0 1 339 57 )" />
  </g>
</svg>