<?xml version="1.0" encoding="utf-8"?>
<svg version="1.1" xmlns:xlink="http://www.w3.org/1999/xlink" width="7px" height="7px" xmlns="http://www.w3.org/2000/svg">
  <g transform="matrix(1 0 0 1 -127 -53 )">
    <path d="M 130.5 53  C 132.46 53  134 54.54  134 56.5  C 134 58.46  132.46 60  130.5 60  C 128.54 60  127 58.46  127 56.5  C 127 54.54  128.54 53  130.5 53  Z " fill-rule="nonzero" fill="#ffffff" stroke="none" />
    <path d="M 130.5 53.5  C 132.18 53.5  133.5 54.82  133.5 56.5  C 133.5 58.18  132.18 59.5  130.5 59.5  C 128.82 59.5  127.5 58.18  127.5 56.5  C 127.5 54.82  128.82 53.5  130.5 53.5  Z " stroke-width="1" stroke="#ffffff" fill="none" />
  </g>
</svg>