<?xml version="1.0" encoding="utf-8"?>
<svg version="1.1" xmlns:xlink="http://www.w3.org/1999/xlink" width="19px" height="18px" xmlns="http://www.w3.org/2000/svg">
  <g transform="matrix(1 0 0 1 -524 -61 )">
    <path d="M 11.65234375 11.0390625  C 12.653345352564104 10.090745192307692  13.153846153846153 8.94951923076923  13.153846153846153 7.615384615384617  C 13.153846153846153 6.281249999999998  12.653345352564104 5.140024038461537  11.65234375 4.191706730769231  C 10.651342147435898 3.2433894230769216  9.446714743589745 2.769230769230769  8.038461538461538 2.769230769230769  C 6.630208333333334 2.769230769230769  5.425580929487181 3.2433894230769216  4.424579326923077 4.191706730769231  C 3.4235777243589745 5.140024038461537  2.9230769230769234 6.281249999999998  2.9230769230769234 7.615384615384617  C 2.9230769230769234 8.94951923076923  3.4235777243589745 10.090745192307692  4.424579326923077 11.0390625  C 5.425580929487181 11.987379807692305  6.630208333333334 12.461538461538462  8.038461538461538 12.461538461538462  C 9.446714743589745 12.461538461538462  10.651342147435898 11.987379807692305  11.65234375 11.0390625  Z M 18.57752403846154 15.641826923076923  C 18.85917467948718 15.908653846153847  19 16.233173076923077  19 16.615384615384617  C 19 16.990384615384617  18.85536858974359 17.314903846153847  18.56610576923077 17.588942307692307  C 18.27684294871795 17.86298076923077  17.934294871794872 18  17.53846153846154 18  C 17.127403846153847 18  16.78485576923077 17.86298076923077  16.510817307692307 17.588942307692307  L 12.59435096153846 13.889423076923077  C 11.231770833333334 14.783653846153847  9.713141025641027 15.23076923076923  8.038461538461538 15.23076923076923  C 6.949919871794872 15.23076923076923  5.908954326923077 15.030649038461538  4.915564903846153 14.630408653846155  C 3.922175480769231 14.23016826923077  3.0658052884615383 13.689302884615383  2.346454326923077 13.0078125  C 1.6271033653846154 12.326322115384617  1.056189903846154 11.515024038461538  0.6337139423076923 10.57391826923077  C 0.21123798076923078 9.6328125  0 8.646634615384613  0 7.615384615384617  C 0 6.584134615384613  0.21123798076923078 5.597956730769231  0.6337139423076923 4.656850961538462  C 1.056189903846154 3.7157451923076916  1.6271033653846154 2.9044471153846163  2.346454326923077 2.222956730769231  C 3.0658052884615383 1.541466346153847  3.922175480769231 1.0006009615384612  4.915564903846153 0.6003605769230775  C 5.908954326923077 0.20012019230769185  6.949919871794872 0  8.038461538461538 0  C 9.127003205128206 0  10.16796875 0.20012019230769185  11.161358173076923 0.6003605769230775  C 12.154747596153847 1.0006009615384612  13.01111778846154 1.541466346153847  13.73046875 2.222956730769231  C 14.44981971153846 2.9044471153846163  15.020733173076923 3.7157451923076916  15.443209134615383 4.656850961538462  C 15.865685096153847 5.597956730769231  16.076923076923077 6.584134615384613  16.076923076923077 7.615384615384617  C 16.076923076923077 9.201923076923077  15.60496794871795 10.640624999999998  14.661057692307693 11.931490384615383  L 18.57752403846154 15.641826923076923  Z " fill-rule="nonzero" fill="#000000" stroke="none" transform="matrix(1 0 0 1 524 61 )" />
  </g>
</svg>